<?xml version="1.0" encoding="UTF-8"?>
<!DOCTYPE svg PUBLIC "-//W3C//DTD SVG 1.1//EN" "http://www.w3.org/Graphics/SVG/1.1/DTD/svg11.dtd">
<!-- Creator: CorelDRAW 2020 (64 Bit) -->
<svg xmlns="http://www.w3.org/2000/svg" xml:space="preserve" width="22.6782mm" height="22.3607mm" version="1.1" style="shape-rendering:geometricPrecision; text-rendering:geometricPrecision; image-rendering:optimizeQuality; fill-rule:evenodd; clip-rule:evenodd"
viewBox="0 0 38.35 37.81"
 xmlns:xlink="http://www.w3.org/1999/xlink"
 xmlns:xodm="http://www.corel.com/coreldraw/odm/2003">
 <defs>
  <style type="text/css">
   <![CDATA[
    .fil1 {fill:#FEFEFE;fill-rule:nonzero}
    .fil0 {fill:black;fill-rule:nonzero}
   ]]>
  </style>
 </defs>
 <g id="Camada_x0020_1">
  <metadata id="CorelCorpID_0Corel-Layer"/>
  <path class="fil0" d="M18.79 0l-0.23 12.18 -1.6 0 -0.21 -12.18 2.04 0zm-1 17.17c-0.36,0 -0.67,-0.13 -0.92,-0.38 -0.25,-0.25 -0.38,-0.56 -0.38,-0.92 0,-0.36 0.13,-0.67 0.38,-0.93 0.25,-0.25 0.56,-0.38 0.92,-0.38 0.36,0 0.66,0.13 0.92,0.38 0.26,0.26 0.39,0.57 0.39,0.93 0,0.36 -0.13,0.67 -0.39,0.92 -0.26,0.25 -0.56,0.38 -0.92,0.38z"/>
  <path class="fil0" d="M8.56 23.79l16.04 0c2.2,0 2.44,-0.72 2.96,-2.66l3.4 -11.37 -7.8 0 0 -0.42 7.91 0 0.58 -2.17c0.28,-0.95 0.87,-1.05 1.76,-1.05l4.67 0c0.28,0 0.28,0.42 0,0.42l-3.72 0 -6.8 22.92c0.96,0.33 1.6,1.23 1.6,2.25 0,1.31 -1.07,2.38 -2.38,2.38 -1.23,0 -2.26,-0.94 -2.37,-2.17l-12.61 0c-0.11,1.23 -1.14,2.17 -2.37,2.17 -1.31,0 -2.38,-1.07 -2.38,-2.38 0,-1.31 1.07,-2.38 2.38,-2.38 1.23,0 2.26,0.94 2.37,2.17l12.61 0c0.11,-1.23 1.14,-2.17 2.37,-2.17 0.05,0 0.37,0.04 0.37,0.02l6.77 -22.81 -0.51 0c-0.67,0 -1.16,0 -1.36,0.75l-4.09 13.94c-0.57,2.14 -0.96,2.98 -3.37,2.98l-16.03 0c-2.41,0 -2.8,-0.84 -3.37,-2.98l-3.35 -11.42c-0.07,-0.24 0.12,-0.48 0.37,-0.48l9.95 0 0 0.42 -9.96 0 3.4 11.37c0.52,1.94 0.76,2.66 2.96,2.66z"/>
  <path class="fil0" d="M0 37.81l0 0c-0,0 -0,0 -0,0 -0,0 -0,0 -0,0 -0,0 -0,0 -0,-0 0,-0 -0,-0 -0,-0 0,-0 0,-0 0,-0 0,-0 0,-0 0,-0 0,0 0,0 0,0 0,0 0,0 0,0l-0 0c0,0 0,-0 0,-0 -0,0 -0,0 -0,0 -0,0 -0,0 -0,0 0,0 0,0 0,0 0,0 0,0 0,0 0,0 0,0 0,0 0,0 0,0 0,0 0,-0 0,-0 0,-0z"/>
  <path id="1" class="fil0" d="M0 37.81l-0 0 0 -0 0 0 0 0c0,-0 0,-0 0,-0 0,0 0,0 0,0 0,0 0,0 0,0l0 0c-0,0 -0,0 -0,0 0,0 0,0 -0,0 0,0 0,0 0,0 0,0 0,0 0,0l0 0z"/>
  <path id="2" class="fil0" d="M0 37.81l0 0c0,0 0,0 -0,0 0,0 -0,0 -0,0 -0,0 -0,0 -0,-0 -0,0 -0,-0 -0,-0 0,0 0,-0 0,-0 0,0 0,0 0,0 0,0 0,0 0,0 0,0 0,0 0,0l-0 0c0,0 0,0 0,0 0,0 0,0 0,0 0,0 0,0 0,0 0,0 0,0 0,-0zm0 -0c0,0 0,-0 -0,-0 0,0 0,0 0,0 -0,0 -0,0 -0,0 0,0 0,0 0,0l0 0z"/>
  <path id="3" class="fil0" d="M0 37.81l-0 0c0,0 0,-0 0,-0 0,0 0,0 0,0 0,0 0,0 0,0 0,0 0,0 0,0 0,0 0,0 0,0l0 0c0,0 0,0 0,0 0,0 0,0 0,0l-0 0c0,0 0,0 0,0 0,0 0,-0 0,-0 -0,0 -0,0 -0,0 0,0 -0,0 -0,0 0,0 -0,0 -0,0 0,-0 -0,-0 -0,-0 0,-0 0,-0 0,-0 0,0 0,-0 0,-0 0,0 0,0 0,0 0,0 0,0 0,0l0 -0c0,0 0,0 -0,0 0,0 0,0 0,0 -0,0 -0,0 -0,0 0,0 0,0 0,0zm0 0c-0,0 -0,0 -0,0 -0,0 -0,0 -0,0 0,0 0,0 0,0 0,0 0,0 0,0 0,0 0,0 0,0 0,0 0,0 0,0 0,0 0,0 0,-0 0,0 0,0 0,0l0 0z"/>
  <path id="4" class="fil0" d="M0 37.81l0 0 -0 0 0 0c0,0 0,0 0,0 0,0 0,0 0,0 0,0 0,0 0,0 0,0 0,0 0,0l0 0c0,0 0,0 -0,0 0,0 0,0 -0,0 0,0 0,0 0,0 0,0 0,-0 0,-0 0,0 0,0 0,-0l0 -0 -0 0 0 -0 0 0 0 -0 0 -0 0 0 0 0z"/>
  <path id="5" class="fil0" d="M0.01 37.81l0 0c0,0 0,0 -0,0 0,0 -0,0 -0,0 -0,0 -0,0 -0,-0 -0,0 -0,-0 -0,-0 0,0 0,-0 0,-0 0,0 0,0 0,0 0,0 0,0 0,0 0,0 0,0 0,0l-0 0c0,0 0,0 0,0 0,0 0,0 0,0 0,0 0,0 0,0 0,0 0,0 0,-0zm0 -0c0,0 0,-0 -0,-0 0,0 0,0 0,0 -0,0 -0,0 -0,0 0,0 0,0 0,0l0 0z"/>
  <path id="6" class="fil0" d="M0.01 37.81l-0 0 0 -0c0,0 0,0 -0,0 0,0 0,0 0,0 -0,0 -0,0 -0,-0 0,0 -0,-0 -0,-0 0,0 0,-0 0,-0 0,0 0,0 0,0 0,0 0,0 0,0l0 -0 0 0 0 0zm-0 -0c0,0 0,0 0,0 0,0 0,0 0,0 0,0 0,0 0,0 0,-0 0,-0 0,-0 0,0 0,-0 0,-0 0,0 -0,0 -0,0 0,0 -0,0 -0,0 0,0 0,0 0,0z"/>
  <path id="7" class="fil0" d="M0.01 37.81l0 -0 0 0 0 0c0,0 0,0 0,0 0,0 0,0 0,0 0,0 0,0 0,0 0,0 0,0 -0,0 0,0 -0,0 -0,0 -0,0 -0,0 -0,0 -0,0 -0,0 -0,-0l0 0 -0 0zm0 -0c0,0 0,0 0,0 0,0 0,0 0,0 0,0 0,0 0,0 0,-0 0,-0 0,-0 0,0 0,-0 0,-0 0,0 -0,0 -0,0 0,0 0,0 -0,0 0,0 0,0 0,0z"/>
  <path id="8" class="fil0" d="M0.01 37.81l0 0 0 0 0 -0 0 0 -0 0 -0 0c0,0 0,0 0,0 0,0 0,0 0,0 -0,0 -0,0 -0,0 0,0 0,0 -0,0 0,0 0,0 0,0l-0 -0c0,0 0,0 0,0 0,0 0,0 0,0 0,0 0,-0 0,-0l-0 -0z"/>
  <path id="9" class="fil0" d="M0.01 37.81c0,0 0,-0 0,-0 0,-0 0,-0 0,-0 0,-0 0,-0 0,-0 0,0 0,0 0,0 0,0 0,0 0,0 0,0 0,0 0,0 0,0 0,0 -0,0 0,0 -0,0 -0,0 -0,0 -0,0 -0,-0 0,0 -0,-0 -0,-0zm0 0c0,0 0,0 0,0 0,0 0,0 0,0 0,0 0,0 0,-0 0,0 0,-0 0,-0 0,0 0,-0 -0,-0 0,-0 0,-0 -0,-0 -0,0 -0,0 -0,0 0,0 0,0 0,0z"/>
  <polygon id="10" class="fil0" points="0.01,37.81 0.01,37.81 0.01,37.81 0.01,37.81 "/>
  <path id="11" class="fil0" d="M0.01 37.81l0 0c0,0 0,0 -0,0 0,0 -0,0 -0,0 -0,0 -0,0 -0,-0 -0,0 -0,-0 -0,-0 0,0 0,-0 0,-0 0,0 0,0 0,0 0,0 0,0 0,0 0,0 0,0 0,0l-0 0c0,0 0,0 0,0 0,0 0,0 0,0 0,0 0,0 0,0 0,0 0,0 0,-0zm0 -0c0,0 0,-0 -0,-0 0,0 0,0 0,0 -0,0 -0,0 -0,0 0,0 0,0 0,0l0 0z"/>
  <polygon id="12" class="fil0" points="0.01,37.81 0.01,37.81 0.01,37.81 0.01,37.81 0.01,37.81 0.01,37.81 0.01,37.81 0.01,37.81 0.01,37.81 0.01,37.81 0.01,37.81 0.01,37.81 "/>
  <path id="13" class="fil0" d="M0.01 37.81l0 -0c0,0 0,0 0,0 0,0 0,0 0,0 0,0 0,0 0,0 0,0 0,0 0,0 0,-0 0,-0 0,-0 0,0 -0,0 -0,0 -0,0 -0,0 -0,-0 0,0 -0,0 -0,-0 0,0 0,-0 0,-0 0,0 0,0 0,0 0,0 0,0 0,0 0,0 0,0 0,0l-0 0c0,0 -0,0 -0,0 0,0 0,0 0,0 -0,0 -0,0 -0,0 0,0 0,0 0,0 0,0 0,0 0,0 0,0 0,0 0,0 0,0 0,0 0,0 0,0 0,0 0,0 0,0 0,0 -0,0 0,0 -0,0 -0,0 -0,0 -0,0 -0,0 0,-0 -0,-0 -0,-0z"/>
  <path id="14" class="fil0" d="M0.01 37.81l-0 0c0,0 0,-0 0,-0 0,0 0,0 0,0 0,0 0,0 0,0 0,0 0,0 0,0 0,0 0,0 0,0l0 0c0,0 0,0 0,0 0,0 0,0 0,0l-0 0c0,0 0,0 0,0 0,0 0,-0 0,-0 -0,0 -0,0 -0,0 0,0 -0,0 -0,0 0,0 -0,0 -0,0 0,-0 -0,-0 -0,-0 0,-0 0,-0 0,-0 0,0 0,-0 0,-0 0,0 0,0 0,0 0,0 0,0 0,0l0 -0c0,0 0,0 -0,0 0,0 0,0 0,0 -0,0 -0,0 -0,0 0,0 0,0 0,0zm0 0c-0,0 -0,0 -0,0 -0,0 -0,0 -0,0 0,0 0,0 0,0 0,0 0,0 0,0 0,0 0,0 0,0 0,0 0,0 0,0 0,0 0,0 0,-0 0,0 0,0 0,0l0 0z"/>
  <path id="15" class="fil0" d="M0.02 37.81l-0 0 0 -0c0,0 0,-0 0,-0 0,0 0,0 0,0 0,0 -0,0 -0,0 0,0 0,0 0,0 -0,0 -0,0 -0,0 0,0 0,0 0,0l0 0 -0 0 0 -0 0 0 0 0c0,-0 0,-0 0,-0 0,0 0,0 0,0 0,0 0,0 0,0 0,0 0,0 0,0 0,0 0,0 0,0l0 0z"/>
  <path id="16" class="fil0" d="M0.02 37.81l-0 0 0 -0c0,0 0,0 -0,0 0,0 0,0 0,0 -0,0 -0,0 -0,-0 0,0 -0,-0 -0,-0 0,0 0,-0 0,-0 0,0 0,0 0,0 0,0 0,0 0,0l0 -0 0 0 0 0zm-0 -0c0,0 0,0 0,0 0,0 0,0 0,0 0,0 0,0 0,0 0,-0 0,-0 0,-0 0,0 0,-0 0,-0 0,0 -0,0 -0,0 0,0 -0,0 -0,0 0,0 0,0 0,0z"/>
  <path id="17" class="fil0" d="M0.02 37.81l-0 0 0 -0 0 0 0 0c0,-0 0,-0 0,-0 0,0 0,0 0,0 0,0 0,0 0,0l0 0c-0,0 -0,0 -0,0 0,0 0,0 -0,0 0,0 0,0 0,0 0,0 0,0 0,0l0 0z"/>
  <path id="18" class="fil0" d="M0.02 37.81l0 -0 0 0c0,0 0,0 0,0 0,0 0,0 0,0 0,0 0,0 0,0 0,0 0,0 0,0 0,0 0,0 -0,0 0,0 0,0 0,0 -0,0 -0,0 -0,0l-0 0 0 0 -0 0zm0 -0l0 0 0 0c0,0 0,0 0,0 0,0 0,0 0,0 0,-0 0,-0 0,-0 0,0 0,0 -0,-0 0,0 0,0 0,0 0,0 -0,0 -0,0l-0 0z"/>
  <path id="19" class="fil0" d="M0.02 37.81l-0 0c0,0 0,-0 0,-0 0,0 0,0 0,0 0,0 0,0 0,0 0,0 0,0 0,0 0,0 0,0 0,0l0 0c0,0 0,0 0,0 0,0 0,0 0,0l-0 0c0,0 0,0 0,0 0,0 0,-0 0,-0 -0,0 -0,0 -0,0 0,0 -0,0 -0,0 0,0 -0,0 -0,0 0,-0 -0,-0 -0,-0 0,-0 0,-0 0,-0 0,0 0,-0 0,-0 0,0 0,0 0,0 0,0 0,0 0,0l0 -0c0,0 0,0 -0,0 0,0 0,0 0,0 -0,0 -0,0 -0,0 0,0 0,0 0,0zm0 0c-0,0 -0,0 -0,0 -0,0 -0,0 -0,0 0,0 0,0 0,0 0,0 0,0 0,0 0,0 0,0 0,0 0,0 0,0 0,0 0,0 0,0 0,-0 0,0 0,0 0,0l0 0z"/>
  <path id="20" class="fil0" d="M0.02 37.81l-0 0 0 -0c0,0 0,-0 0,-0 0,0 0,0 0,0 0,0 -0,0 -0,0 0,0 0,0 0,0 -0,0 -0,0 -0,0 0,0 0,0 0,0l0 0 -0 0 0 -0 0 0 0 0c0,-0 0,-0 0,-0 0,0 0,0 0,0 0,0 0,0 0,0 0,0 0,0 0,0 0,0 0,0 0,0l0 0z"/>
  <path id="21" class="fil0" d="M0.02 37.81l-0 0c0,0 0,-0 0,-0 0,0 0,0 0,0 0,0 0,0 0,0 0,0 0,0 0,0 0,0 0,0 0,0l0 0c0,0 0,0 0,0 0,0 0,0 0,0l-0 0c0,0 0,0 0,0 0,0 0,-0 0,-0 -0,0 -0,0 -0,0 0,0 -0,0 -0,0 0,0 -0,0 -0,0 0,-0 -0,-0 -0,-0 0,-0 0,-0 0,-0 0,0 0,-0 0,-0 0,0 0,0 0,0 0,0 0,0 0,0l0 -0c0,0 0,0 -0,0 0,0 0,0 0,0 -0,0 -0,0 -0,0 0,0 0,0 0,0zm0 0c-0,0 -0,0 -0,0 -0,0 -0,0 -0,0 0,0 0,0 0,0 0,0 0,0 0,0 0,0 0,0 0,0 0,0 0,0 0,0 0,0 0,0 0,-0 0,0 0,0 0,0l0 0z"/>
  <path id="22" class="fil0" d="M0.02 37.81l0 -0c0,0 0,0 0,0 0,0 0,0 0,0 0,0 0,0 0,0 0,0 0,0 0,0 0,-0 0,-0 0,-0 0,0 -0,0 -0,0 -0,0 -0,0 -0,-0 0,0 -0,0 -0,-0 0,0 0,-0 0,-0 0,0 0,0 0,0 0,0 0,0 0,0 0,0 0,0 0,0l-0 0c0,0 -0,0 -0,0 0,0 0,0 0,0 -0,0 -0,0 -0,0 0,0 0,0 0,0 0,0 0,0 0,0 0,0 0,0 0,0 0,0 0,0 0,0 0,0 0,0 0,0 0,0 0,0 -0,0 0,0 -0,0 -0,0 -0,0 -0,0 -0,0 0,-0 -0,-0 -0,-0z"/>
  <path id="23" class="fil0" d="M0.02 37.81c0,0 0,-0 0,-0 0,0 0,-0 0,-0 0,0 0,0 0,0 0,0 0,0 0,0 0,0 0,0 0,0 0,0 -0,0 -0,0 -0,0 -0,0 -0,0 0,0 -0,0 -0,0 -0,0 -0,-0 -0,-0 0,-0 -0,-0 -0,-0zm0 0c0,0 0,0 0,0 0,0 0,0 0,0 0,0 0,0 0,0 0,-0 0,-0 0,-0 0,0 0,0 0,-0 0,0 -0,0 -0,0 0,0 -0,0 -0,0 0,0 0,0 0,0z"/>
  <path id="24" class="fil0" d="M0.03 37.81l-0 -0 0 0 0 0 0 0c0,0 0,0 0,0 0,0 0,0 0,-0l0 -0 0 0 -0 0 -0 0z"/>
  <path id="25" class="fil0" d="M0.03 37.81l0 -0c0,0 0,0 0,0 0,0 0,0 0,0 0,0 0,0 0,0 0,0 0,0 0,0 0,-0 0,-0 0,-0 0,0 -0,0 -0,0 -0,0 -0,0 -0,-0 0,0 -0,0 -0,-0 0,0 0,-0 0,-0 0,0 0,0 0,0 0,0 0,0 0,0 0,0 0,0 0,0l-0 0c0,0 -0,0 -0,0 0,0 0,0 0,0 -0,0 -0,0 -0,0 0,0 0,0 0,0 0,0 0,0 0,0 0,0 0,0 0,0 0,0 0,0 0,0 0,0 0,0 0,0 0,0 0,0 -0,0 0,0 -0,0 -0,0 -0,0 -0,0 -0,0 0,-0 -0,-0 -0,-0z"/>
  <polygon id="26" class="fil0" points="0.03,37.81 0.03,37.81 0.03,37.81 0.03,37.81 0.03,37.81 0.03,37.81 0.03,37.81 0.03,37.81 0.03,37.81 0.03,37.81 0.03,37.81 0.03,37.81 "/>
  <path id="27" class="fil0" d="M0.03 37.81l0 0 0 0 0 -0 0 0 -0 0 -0 0c0,0 0,0 0,0 0,0 0,0 0,0 -0,0 -0,0 -0,0 0,0 0,0 -0,0 0,0 0,0 0,0l-0 -0c0,0 0,0 0,0 0,0 0,0 0,0 0,0 0,-0 0,-0l-0 -0z"/>
  <path id="28" class="fil0" d="M0.03 37.81l0 -0 0 0 0 0 -0 0zm0 0l0 -0 0 0 0 0 -0 0z"/>
  <path class="fil0" d="M-0 37.81l0 0 0 -0c0,0 0,0 0,-0 0,0 0,0 0,0 0,0 0,0 0,0 0,0 0,0 0,0l-0 0c0,0 0,0 0,0 0,0 -0,0 -0,0 0,0 0,0 0,0l0 0 0 0 0 0 -0 0 0 0 -0 0 0 -0 -0 0 0 -0z"/>
  <path id="1" class="fil0" d="M0 37.81l-0 0 0 -0 0 0 0 0c0,-0 0,-0 0,-0 0,0 0,0 0,0 0,0 0,0 0,0l0 0c-0,0 -0,0 -0,0 0,0 0,0 -0,0 0,0 0,0 0,0 0,0 0,0 0,0l0 0z"/>
  <path id="2" class="fil0" d="M0 37.81c0,0 0,-0 0,-0 0,0 0,-0 0,-0 0,0 0,0 0,0 0,0 0,0 0,0 0,0 0,0 0,0 0,0 -0,0 -0,0 -0,0 -0,0 -0,0 0,0 -0,0 -0,0 -0,0 -0,-0 -0,-0 0,-0 -0,-0 -0,-0zm0 0c0,0 0,0 0,0 0,0 0,0 0,0 0,0 0,0 0,0 0,-0 0,-0 0,-0 0,0 0,0 0,-0 0,0 -0,0 -0,0 0,0 -0,0 -0,0 0,0 0,0 0,0z"/>
  <path id="3" class="fil0" d="M0 37.81l0 0 0 0c0,-0 0,-0 0,-0 0,0 0,0 0,0 0,0 0,0 0,0 0,-0 0,-0 0,-0 0,0 0,0 0,0 0,0 0,0 0,0 0,0 0,0 0,0 0,0 0,0 0,0l0 0 -0 0 0 -0c0,0 0,-0 0,-0 0,0 -0,0 -0,0 0,0 0,0 0,0 -0,0 -0,0 -0,0 0,0 0,0 0,0l0 0 -0 0 0 -0c0,0 0,-0 0,-0 0,0 0,0 -0,0 0,0 0,0 0,0 0,0 0,0 -0,0 0,0 0,0 0,0 0,0 0,0 0,0l0 0 -0 0 0 -0z"/>
  <path id="4" class="fil0" d="M0 37.81l0 0 -0 0 0 0c0,0 0,0 0,0 0,0 0,0 0,0 0,0 0,0 0,0 0,0 0,0 0,0l0 0c0,0 0,0 -0,0 0,0 0,0 -0,0 0,0 0,0 0,0 0,0 0,-0 0,-0 0,0 0,0 0,-0l0 -0 -0 0 0 -0 0 0 0 -0 0 -0 0 0 0 0z"/>
  <path id="5" class="fil0" d="M0.01 37.81l0 0c0,0 0,0 0,0 0,0 0,0 0,0 0,0 0,0 0,0 0,0 0,0 0,0 0,0 0,0 0,0l0 0 -0 0 0 -0c0,0 0,-0 0,-0 0,0 0,0 0,0 0,0 -0,0 -0,0 0,0 0,0 0,0 -0,0 -0,0 -0,0 0,0 0,0 0,0l0 0 -0 0 0 -0 0 0z"/>
  <path id="6" class="fil0" d="M0.01 37.81l0 0c0,0 0,0 -0,0 0,0 -0,0 -0,0 -0,0 -0,0 -0,-0 -0,0 -0,-0 -0,-0 0,0 0,-0 0,-0 0,0 0,0 0,0 0,0 0,0 0,0 0,0 0,0 0,0l-0 0c0,0 0,0 0,0 0,0 0,0 0,0 0,0 0,0 0,0 0,0 0,0 0,-0zm0 -0c0,0 0,-0 -0,-0 0,0 0,0 0,0 -0,0 -0,0 -0,0 0,0 0,0 0,0l0 0z"/>
  <polygon id="7" class="fil0" points="0.01,37.81 0.01,37.81 0.01,37.81 0.01,37.81 0.01,37.81 0.01,37.81 0.01,37.81 0.01,37.81 0.01,37.81 0.01,37.81 "/>
  <path id="8" class="fil0" d="M0.01 37.81c0,0 0,-0 0,-0 0,0 0,-0 0,-0 0,0 0,0 0,0 0,0 0,0 0,0 0,0 0,0 0,0 0,0 -0,0 -0,0 -0,0 -0,0 -0,0 0,0 -0,0 -0,0 -0,0 -0,-0 -0,-0 0,-0 -0,-0 -0,-0zm0 0c0,0 0,0 0,0 0,0 0,0 0,0 0,0 0,0 0,0 0,-0 0,-0 0,-0 0,0 0,0 0,-0 0,0 -0,0 -0,0 0,0 -0,0 -0,0 0,0 0,0 0,0z"/>
  <path id="9" class="fil0" d="M0.01 37.81l0 -0c0,0 0,0 -0,0 0,0 0,0 -0,0 0,0 0,0 -0,0 0,0 0,0 0,-0 0,0 0,0 0,-0l0 -0 0 0 0 0c0,0 0,0 0,0 0,0 0,0 0,0 0,0 0,0 0,0 0,0 0,0 0,0 0,0 0,0 0,-0 0,0 0,0 0,-0l0 -0 0 0 0 0 -0 0z"/>
  <path id="10" class="fil0" d="M0.01 37.81l-0 0 0 -0c0,0 0,-0 0,-0 0,0 0,0 0,0 0,0 -0,0 -0,0 0,0 0,0 0,0 -0,0 -0,0 -0,0 0,0 0,0 0,0l0 0 -0 0 0 -0 0 0 0 0c0,-0 0,-0 0,-0 0,0 0,0 0,0 0,0 0,0 0,0 0,0 0,0 0,0 0,0 0,0 0,0l0 0z"/>
  <path id="11" class="fil0" d="M0.01 37.81l0 -0 0 0c0,0 0,0 0,0 0,0 0,0 0,0 0,0 0,0 0,0 0,0 0,0 0,0 0,0 0,0 -0,0 0,0 0,0 0,0 -0,0 -0,0 -0,0l-0 0 0 0 -0 0zm0 -0l0 0 0 0c0,0 0,0 0,0 0,0 0,0 0,0 0,-0 0,-0 0,-0 0,0 0,0 -0,-0 0,0 0,0 0,0 0,0 -0,0 -0,0l-0 0z"/>
  <path id="12" class="fil0" d="M0.01 37.81l-0 0 0 -0 0 0 0 0c0,-0 0,-0 0,-0 0,0 0,0 0,0 0,0 0,0 0,0l0 0c-0,0 -0,0 -0,0 0,0 0,0 -0,0 0,0 0,0 0,0 0,0 0,0 0,0l0 0z"/>
  <path id="13" class="fil0" d="M0.01 37.81c0,0 0,-0 0,-0 0,0 0,-0 0,-0 0,0 0,0 0,0 0,0 0,0 0,0 0,0 0,0 0,0 0,0 -0,0 -0,0 -0,0 -0,0 -0,0 0,0 -0,0 -0,0 -0,0 -0,-0 -0,-0 0,-0 -0,-0 -0,-0zm0 0c0,0 0,0 0,0 0,0 0,0 0,0 0,0 0,0 0,0 0,-0 0,-0 0,-0 0,0 0,0 0,-0 0,0 -0,0 -0,0 0,0 -0,0 -0,0 0,0 0,0 0,0z"/>
  <path id="14" class="fil0" d="M0.02 37.81l0 -0 0 0 0 0 -0 0zm0 0l0 0c0,0 0,0 0,0 0,0 0,0 -0,0 0,0 0,0 -0,0 0,0 0,0 0,0 0,0 0,0 0,0l0 -0c0,0 0,0 0,0 0,0 0,0 0,0 0,0 0,0 0,0 0,0 0,0 0,0 0,-0 0,-0 0,-0l0 -0 0 0z"/>
  <path id="15" class="fil0" d="M0.02 37.81l0 0c0,0 0,0 -0,0 0,0 -0,0 -0,0 -0,0 -0,0 -0,-0 -0,0 -0,-0 -0,-0 0,0 0,-0 0,-0 0,0 0,0 0,0 0,0 0,0 0,0 0,0 0,0 0,0l-0 0c0,0 0,0 0,0 0,0 0,0 0,0 0,0 0,0 0,0 0,0 0,0 0,-0zm0 -0c0,0 0,-0 -0,-0 0,0 0,0 0,0 -0,0 -0,0 -0,0 0,0 0,0 0,0l0 0z"/>
  <path id="16" class="fil0" d="M0.02 37.81l-0 0c0,-0 0,-0 0,-0 -0,0 -0,0 -0,0 0,0 -0,0 -0,0 0,0 0,0 0,0 0,0 0,0 0,0 0,0 0,0 0,0 0,0 0,0 0,0 0,0 0,-0 0,-0l0 0c0,0 0,0 0,0 -0,0 -0,0 -0,0 -0,0 -0,0 -0,-0 0,0 -0,-0 -0,-0 0,0 0,-0 0,-0 0,0 0,0 0,0 0,0 0,0 0,0 0,0 0,0 0,0z"/>
  <path id="17" class="fil0" d="M0.02 37.81l0 0 -0 0 0 0c0,0 0,0 0,0 0,0 0,0 0,0 0,0 0,0 0,0 0,0 0,0 0,0l0 0c0,0 0,0 -0,0 0,0 0,0 -0,0 0,0 0,0 0,0 0,0 0,-0 0,-0 0,0 0,0 0,-0l0 -0 -0 0 0 -0 0 0 0 -0 0 -0 0 0 0 0z"/>
  <path class="fil1" d="M9.43 29.76c1.08,0 1.96,0.88 1.96,1.96 0,1.08 -0.88,1.96 -1.96,1.96 -1.08,0 -1.96,-0.88 -1.96,-1.96 0,-1.08 0.88,-1.96 1.96,-1.96z"/>
  <path class="fil1" d="M26.78 29.76c1.08,0 1.96,0.88 1.96,1.96 0,1.08 -0.88,1.96 -1.96,1.96 -1.08,0 -1.96,-0.88 -1.96,-1.96 0,-1.08 0.88,-1.96 1.96,-1.96z"/>
  <path class="fil0" d="M38.14 35.59c0.28,0 0.28,0.42 0,0.42l-21.49 0c-0.28,0 -0.28,-0.42 0,-0.42l21.49 0zm-32.73 0c0.28,0 0.28,0.42 0,0.42l-4.69 0c-0.28,0 -0.28,-0.42 0,-0.42l4.69 0zm8.9 0c0.28,0 0.28,0.42 0,0.42l-6.61 0c-0.28,0 -0.28,-0.42 0,-0.42l6.61 0z"/>
 </g>
</svg>
