<svg width="650" height="721" viewBox="0 0 650 721" fill="none" xmlns="http://www.w3.org/2000/svg">
<path d="M53.1658 398.949C69.3493 412.743 102.338 452.595 139.781 497.828C191.372 560.143 251.436 632.707 287.269 660.996C303.63 673.911 329.648 673.733 356.93 667.295C396.633 657.905 438.825 635.264 458.287 620.098C463.204 616.266 467.835 611.152 471.468 605.78C473.275 603.104 474.826 600.369 476.03 597.703C471.607 602.502 465.702 607.567 458.701 612.652C448.304 620.216 435.438 627.858 421.387 634.76C407.979 641.346 387.085 649.769 366.527 655.387C351.025 659.623 335.691 662.269 323.803 661.351C316.673 660.808 310.285 658.893 303.679 655.19C297.153 651.536 290.438 646.155 282.588 638.611C248.256 605.622 193.377 538.38 142.397 475.898C93.9454 416.515 49.0088 361.448 28.7671 344.425C25.637 341.789 21.253 339.123 16.8492 340.071C15.062 340.456 13.3834 341.433 11.8529 342.964C6.83691 347.97 4.78311 357.153 3.77596 363.827H3.78584C3.75621 364.015 3.72659 364.193 3.69697 364.38C0.596529 385.728 10.5199 386.933 23.5635 388.503C32.9438 389.638 43.7953 390.951 53.1855 398.949H53.1658ZM406.488 4.1765C403.901 2.93237 405.796 -1.00736 408.383 0.246643C441.856 16.4894 460.696 46.1312 470.935 80.9074C477.511 103.233 482.34 120.206 493.3 141.425C497.111 148.801 500.784 156.039 504.448 163.316C505.08 164.58 505.711 165.844 506.353 167.108C507.904 170.198 507.054 169.309 510.352 169.063C517.462 168.549 526.96 171.047 531.878 176.517C534.237 179.134 532.598 179.075 535.867 177.268C552.771 167.957 579.006 178.542 576.143 198.566C575.205 205.162 571.828 210.968 567.928 216.241C566.289 218.452 566.605 217.672 569.33 218.393C575.106 219.904 577.545 222.955 580.497 228.939L648.816 373.603C652.894 382.42 645.794 386.962 637.767 386.755L487.04 386.873C479.298 386.972 474.608 385.471 471.686 377.75L455.413 334.739C454.12 331.312 454.89 331.184 452.096 332.872C437.709 341.532 424.843 342.46 408.492 337.345C384.409 329.821 361.975 318.239 339.374 307.249C323.97 299.765 297.844 293.515 286.301 283.137C277.563 275.267 277.148 265.759 269.426 257.948C256.531 244.905 254.053 235.001 255.267 217.149C257.39 186.026 256.709 158.142 254.507 127.128C254.299 124.264 258.664 123.948 258.861 126.822C261.083 157.994 261.764 186.164 259.621 217.445C258.486 234.034 260.53 242.742 272.537 254.878C280.426 262.856 281.157 272.631 289.224 279.898C299.878 289.496 326.626 296.21 341.27 303.329C363.664 314.22 385.93 325.734 409.785 333.188C425.268 338.027 437.008 337.089 450.457 328.785C453.192 327.096 452.718 327.659 451.562 324.608L450.101 320.757C449.212 318.417 449.647 318.891 447.149 319.661C431.953 324.341 420.015 324.914 407.169 321.833C386.986 316.985 363.94 303.142 345.2 293.1C330.053 284.984 318.194 278.625 303.156 271.061C300.589 269.768 302.554 265.867 305.121 267.161C319.991 274.645 331.968 281.064 347.253 289.249C365.589 299.074 388.497 312.868 408.176 317.588C420.173 320.471 431.41 319.918 445.786 315.504C448.383 314.704 447.988 315.139 447.001 312.552L444.463 305.847C443.347 302.895 444.029 303.26 441.007 304.03C423.441 308.513 406.468 310.429 389.603 302.47C376.125 296.112 358.529 281.212 339.996 265.522C324.168 252.123 307.639 238.131 292.66 228.583C290.241 227.043 292.591 223.37 295 224.91C310.285 234.656 326.903 248.716 342.82 262.194C361.136 277.697 378.514 292.409 391.469 298.531C407.238 305.976 423.204 304.04 439.625 299.883C442.508 299.153 442.103 299.637 441.047 296.832L413.952 225.246C412.254 220.763 413.409 221.987 409.43 218.699C402.903 213.318 396.347 207.907 391.212 201.035C389.504 198.744 387.914 196.344 386.315 193.935C382.81 188.633 379.265 183.291 373.963 178.68C371.356 176.409 368.295 174.246 365.046 173.002C362.361 171.975 363.911 167.888 366.606 168.915C368.315 169.566 370.023 170.445 371.711 171.521C374.111 173.042 374.051 173.703 373.538 170.326C372.62 164.353 370.191 158.29 366.952 153.215C365.412 150.796 369.095 148.456 370.625 150.875C372.6 153.955 374.318 157.421 375.631 161.045C376.401 163.158 375.987 163.632 378.307 162.21C382.849 159.426 386.206 153.857 389.563 149.808C392.595 146.165 395.922 142.798 400.089 140.991C403.417 139.549 403.051 140.487 400.464 136.518C394.767 127.789 388.092 119.367 382 111.941C380.183 109.73 383.55 106.955 385.367 109.167C394.629 120.443 404.009 132.43 410.783 145.414C413.597 150.806 415.858 156.236 417.24 161.578C421.99 179.924 429.06 196.423 437.68 209.882C451.414 231.328 469.968 247.808 496.835 246.11C517.126 244.826 524.541 231.496 520.809 212.36C519.051 203.375 515.072 194.478 511.587 187.438C507.844 179.885 504.201 172.568 500.547 165.31C496.894 158.053 493.231 150.825 489.409 143.449C478.341 122.033 473.354 104.664 466.739 82.1614C456.855 48.5898 438.825 19.8959 406.478 4.19625L406.488 4.1765ZM563.099 345.412C560.433 346.933 556.187 346.558 553.186 345.343C552.366 345.008 552.337 345.067 551.329 345.551C550.303 346.035 548.782 346.202 547.785 346.242C545.316 346.35 540.922 346.193 539.797 343.497L537.17 337.237C536.864 336.506 536.943 336.694 536.104 336.674L531.019 336.605C529.37 336.585 528.066 337.158 528.846 339.162L534.03 352.532C534.257 353.124 534.119 353.094 534.633 352.857C537.338 351.623 541.288 351.623 544.072 352.69C544.99 353.045 544.595 353.075 545.543 352.788C548.288 351.949 552.297 351.811 555.042 352.818C556.02 353.173 555.605 353.282 556.573 352.936C558.755 352.156 561.559 352.097 563.672 352.838C564.353 353.075 563.988 354.102 563.316 353.865C561.529 353.243 559.179 353.272 557.303 353.845C556.513 354.092 556.691 354.032 556.987 354.813L559.318 360.875C559.673 361.803 559.485 361.626 560.493 361.635C562.665 361.655 564.837 361.665 566.999 361.665C570.692 361.823 569.527 358.476 568.658 356.402L564.156 345.748C563.672 344.613 563.978 344.909 563.109 345.403L563.099 345.412ZM562.072 344.692C563.415 344.168 563.356 343.892 562.902 342.825L561.618 339.784C560.611 337.642 559.258 337.118 556.987 336.98L550.194 336.881C549.374 336.871 549.384 336.713 549.68 337.424L552.001 342.954C552.88 345.442 560.423 345.827 562.082 344.692H562.072ZM547.735 345.156C548.436 345.126 549.631 345.037 550.49 344.721C551.596 344.316 551.27 344.06 550.885 343.161L548.486 337.434C548.189 336.733 548.338 336.862 547.577 336.852L538.839 336.723C538.079 336.713 538.069 336.555 538.335 337.207L540.873 343.27C541.683 345.205 546.007 345.235 547.735 345.156ZM536.815 347.387C536.538 346.726 537.545 346.301 537.822 346.973L538.799 349.293C539.076 349.954 538.069 350.379 537.792 349.708L536.815 347.387ZM554.953 353.963C552.495 352.917 548.693 353.045 546.136 353.756C545.346 353.973 545.464 353.874 545.741 354.625L547.933 360.658C548.268 361.586 548.041 361.487 548.999 361.497C551.872 361.527 554.756 361.566 557.629 361.596C558.557 361.606 558.468 361.754 558.143 360.895L555.852 354.931C555.575 354.22 555.674 354.26 554.943 353.944L554.953 353.963ZM543.717 353.717C541.199 352.69 537.526 352.719 535.077 353.855C534.465 354.141 534.633 354.102 534.889 354.753L536.479 358.851C537.259 360.865 538.296 361.477 540.438 361.458C542.374 361.458 544.319 361.468 546.254 361.487C547.212 361.497 547.133 361.655 546.807 360.757L544.556 354.566C544.319 353.914 544.378 353.993 543.717 353.717ZM558.992 348.049C558.715 347.387 559.722 346.963 559.999 347.624L560.927 349.846C561.203 350.507 560.196 350.932 559.92 350.27L558.992 348.049ZM518.429 304.504C517.57 305.64 515.832 304.327 516.691 303.191C524.847 292.448 542.798 293.149 551.813 302.352C552.82 303.379 551.26 304.909 550.253 303.882C542.166 295.628 525.766 294.838 518.419 304.514L518.429 304.504ZM522.744 307.032C521.786 308.089 520.167 306.627 521.125 305.571C528.076 298.027 540.991 298.531 548.239 305.215C549.295 306.183 547.814 307.792 546.758 306.825C540.468 301.019 528.807 300.338 522.734 307.032H522.744ZM527.77 309.906C526.812 310.982 525.183 309.52 526.141 308.454C530.752 303.418 539.777 303.586 544.684 308.079C545.741 309.046 544.26 310.656 543.203 309.688C539.194 306.114 531.512 305.709 527.77 309.906ZM532.697 312.522C531.66 313.51 530.15 311.93 531.196 310.942C533.655 308.592 538.177 308.997 540.823 310.824C541.998 311.633 540.764 313.431 539.589 312.621C537.802 311.387 534.405 310.903 532.707 312.522H532.697ZM484.186 338.599C483.11 335.933 487.158 334.294 488.234 336.96L498.612 362.396C499.688 365.062 495.64 366.701 494.564 364.035L484.186 338.599ZM602.635 340.831C601.44 338.224 605.409 336.407 606.604 339.014L617.051 361.734C618.246 364.341 614.276 366.158 613.082 363.551L602.635 340.821V340.831ZM586.639 306.055C585.444 303.448 589.414 301.631 590.608 304.238L601.055 326.958C602.25 329.565 598.28 331.382 597.086 328.775L586.639 306.055ZM570.643 271.278C569.448 268.672 573.418 266.855 574.612 269.462L585.059 292.192C586.254 294.798 582.284 296.615 581.09 293.998L570.643 271.278ZM554.647 236.502C553.452 233.895 557.422 232.079 558.616 234.685L569.063 257.415C570.258 260.022 566.289 261.839 565.094 259.232L554.647 236.512V236.502ZM531.028 333.337L557.106 333.712C560.483 333.712 563.139 335.341 564.58 338.382L571.966 355.869C573.852 360.322 572.45 365.16 566.861 364.933L540.448 364.716C536.923 364.746 534.702 363.314 533.418 360.016L525.568 339.686C524.176 336.091 527.089 333.267 531.019 333.317L531.028 333.337ZM393.207 290.069C393.306 291.5 391.124 291.658 391.025 290.227C390.817 287.314 391.262 284.361 392.279 281.626C392.782 280.283 394.826 281.044 394.323 282.387C393.414 284.816 393.019 287.482 393.207 290.069ZM399.586 294.502C399.971 295.884 397.867 296.477 397.482 295.094C396.307 290.947 397.611 284.648 399.339 280.767C399.921 279.454 401.916 280.343 401.333 281.656C399.823 285.062 398.559 290.868 399.595 294.512L399.586 294.502ZM559.278 221.602L530.387 220.24C525.4 220.003 526.289 219.104 526.022 223.478C524.995 240.6 513.858 249.378 497.111 250.444C471.35 252.073 452.629 238.27 438.282 218.482C436.11 215.49 437.176 215.875 433.552 215.579C428.536 215.174 419.353 214.562 417.556 216.892C416.263 218.571 417.379 221.958 418.03 223.676C437.275 274.517 456.509 325.368 475.754 376.21C477.975 382.075 481.135 382.588 486.971 382.509C537.259 382.509 587.557 382.391 637.855 382.391C643.01 382.529 647.147 381.127 644.807 375.37L576.548 230.834C572.085 221.79 568.244 222.027 559.258 221.602H559.278ZM562.783 215.786C566.871 210.583 570.87 204.639 571.828 197.954C574.296 180.665 548.871 172.331 535.106 182.995C532.944 184.664 530.9 186.589 528.955 188.416C526.625 190.608 524.423 192.661 522.181 194.172C519.407 196.038 519.95 195.012 521.332 198.635C522.892 202.763 524.245 207.107 525.104 211.491C526.072 216.448 524.768 215.599 530.051 215.846L559.495 217.238C561.835 217.347 561.322 217.633 562.783 215.777V215.786ZM431.765 208.578C423.925 195.456 417.477 179.835 413.024 162.645C411.661 157.401 409.381 152.01 406.527 146.649C405.174 144.101 405.549 143.617 402.647 144.674C401.847 144.97 401.067 145.335 400.316 145.78C397.739 147.29 398.43 147.142 398.569 149.976C399.507 168.352 391.311 174.108 394.935 195.801C395.577 199.662 395.488 199.603 398.124 202.516C401.926 206.712 406.3 210.425 410.704 214.078C414.545 217.258 412.056 215.747 415.127 213.16C418.563 210.267 425.683 210.761 430.817 211.126C434.243 211.373 433.532 211.55 431.755 208.578H431.765ZM456.253 136.301C454.929 136.844 454.11 134.82 455.433 134.286C458.435 133.062 461.575 132.134 464.784 131.689C466.206 131.502 466.492 133.664 465.07 133.852C462.039 134.267 459.067 135.145 456.243 136.301H456.253ZM454.574 144.644C453.29 145.286 452.313 143.331 453.596 142.689C459.205 139.895 465.524 137.999 471.844 138.325C473.275 138.394 473.177 140.576 471.745 140.507C465.781 140.201 459.866 142.008 454.574 144.654V144.644ZM471.498 222.896C472.673 224.703 469.928 226.48 468.753 224.673C454.159 202.15 455.393 180.507 485.963 178.561C488.116 178.423 488.323 181.691 486.171 181.83C458.277 183.607 458.296 202.506 471.498 222.886V222.896ZM392.368 153.215C388.566 157.856 385.209 163.405 379.482 166.515C377.547 167.562 377.428 166.89 377.833 169.28C378.08 170.761 378.238 172.222 378.287 173.664C378.416 177.278 378.307 176.557 380.825 179.223C383.303 181.84 384.854 184.012 386.789 186.786C390.709 192.415 389.593 192.089 389.455 185.898C389.159 172.894 393.829 166.308 394.234 153.965C394.342 150.499 394.5 150.598 392.358 153.215H392.368ZM511.103 176.626C513.127 180.694 515.2 184.762 517.146 188.87C518.479 191.694 517.965 191.941 520.789 189.828C523.495 187.803 526.21 184.95 528.53 182.847C530.199 181.336 530.456 181.425 528.59 179.371C524.966 175.372 517.659 173.378 512.426 173.348C508.605 173.318 509.533 173.506 511.093 176.636L511.103 176.626ZM233.801 412.408V412.388V412.408ZM233.781 412.388V412.398V412.388L233.771 412.398L233.761 412.378L233.752 412.388L233.761 412.398V412.388V412.368V412.378V412.368H233.771L233.781 412.388ZM233.752 412.398H233.742C233.742 412.398 233.742 412.398 233.752 412.398C233.752 412.398 233.752 412.398 233.742 412.398C233.742 412.398 233.742 412.398 233.732 412.398H233.752ZM233.742 412.398L233.732 412.378V412.388V412.378L233.722 412.398H233.742ZM233.722 412.388C233.722 412.388 233.722 412.388 233.732 412.388C233.732 412.388 233.732 412.388 233.732 412.398C233.732 412.398 233.732 412.398 233.732 412.408C233.732 412.408 233.732 412.408 233.722 412.408V412.388ZM233.702 412.388H233.692C233.692 412.388 233.692 412.388 233.702 412.388C233.702 412.388 233.702 412.388 233.692 412.388C233.692 412.388 233.692 412.388 233.682 412.388H233.702ZM233.692 412.388V412.378V412.388V412.368V412.378V412.388ZM233.643 412.388V412.368H233.653C233.653 412.368 233.653 412.368 233.663 412.368V412.378L233.643 412.388ZM233.643 412.368V412.378V412.368ZM233.623 412.388V412.368C233.623 412.368 233.623 412.368 233.623 412.378V412.388ZM233.613 412.388C233.613 412.388 233.613 412.388 233.603 412.388C233.603 412.388 233.603 412.388 233.603 412.378C233.603 412.378 233.603 412.378 233.603 412.368C233.603 412.368 233.603 412.368 233.613 412.368V412.358V412.378V412.388ZM233.594 412.388V412.378V412.388V412.368V412.378V412.388ZM233.544 412.378H233.534C233.534 412.378 233.534 412.378 233.544 412.378C233.544 412.378 233.544 412.378 233.534 412.378C233.534 412.378 233.534 412.378 233.524 412.378H233.544ZM233.524 412.378V412.358V412.368V412.358H233.534L233.524 412.368L233.534 412.378V412.368L233.524 412.378ZM233.515 412.378C233.515 412.378 233.515 412.378 233.505 412.378C233.505 412.378 233.505 412.378 233.505 412.368C233.505 412.368 233.505 412.368 233.505 412.358C233.505 412.358 233.505 412.358 233.515 412.358C233.515 412.358 233.515 412.358 233.524 412.358C233.524 412.358 233.524 412.358 233.524 412.368H233.515V412.378ZM233.515 412.378H233.524H233.515ZM233.495 412.388V412.368V412.388ZM233.475 412.378C233.475 412.378 233.475 412.378 233.475 412.368H233.485C233.485 412.368 233.485 412.368 233.485 412.378V412.388C233.485 412.388 233.485 412.388 233.475 412.388H233.465C233.465 412.388 233.465 412.388 233.465 412.378H233.475ZM233.475 412.378C233.475 412.378 233.475 412.378 233.475 412.388C233.475 412.388 233.475 412.388 233.475 412.378C233.475 412.378 233.475 412.378 233.475 412.368C233.475 412.368 233.475 412.368 233.475 412.378ZM233.445 412.378V412.388V412.378L233.436 412.388L233.426 412.368L233.445 412.378ZM233.426 412.398V412.378V412.388C233.426 412.388 233.426 412.388 233.426 412.398C233.426 412.398 233.426 412.398 233.426 412.408V412.398ZM233.406 412.398C233.406 412.398 233.406 412.398 233.396 412.398C233.396 412.398 233.396 412.398 233.396 412.388C233.396 412.388 233.396 412.388 233.396 412.378C233.396 412.378 233.396 412.378 233.406 412.378V412.368V412.388V412.398ZM233.386 412.388C233.386 412.388 233.386 412.388 233.376 412.388C233.376 412.388 233.376 412.388 233.376 412.378C233.376 412.378 233.376 412.378 233.376 412.368C233.376 412.368 233.376 412.368 233.386 412.368C233.386 412.368 233.386 412.368 233.396 412.368C233.396 412.368 233.396 412.368 233.396 412.378H233.386V412.388ZM233.386 412.388H233.396H233.386ZM233.376 412.378V412.388V412.378V412.388V412.378ZM233.347 412.378C233.347 412.378 233.347 412.378 233.337 412.378C233.337 412.378 233.337 412.378 233.337 412.368C233.337 412.368 233.337 412.368 233.337 412.358C233.337 412.358 233.337 412.358 233.347 412.358C233.347 412.358 233.347 412.358 233.357 412.358C233.357 412.358 233.357 412.358 233.357 412.368H233.347V412.378ZM233.347 412.378H233.357H233.347ZM233.327 412.388V412.368C233.327 412.368 233.327 412.368 233.327 412.378V412.388ZM233.317 412.378C233.317 412.378 233.317 412.378 233.317 412.388C233.317 412.388 233.317 412.388 233.307 412.388C233.307 412.388 233.307 412.388 233.297 412.388C233.297 412.388 233.297 412.388 233.297 412.378V412.368C233.297 412.368 233.297 412.368 233.307 412.368C233.307 412.368 233.307 412.368 233.317 412.368C233.317 412.368 233.317 412.368 233.317 412.378C233.317 412.378 233.317 412.378 233.317 412.388V412.378ZM22.5465 720.763H22.5563V720.773C22.5563 720.773 22.5563 720.773 22.5465 720.773H22.5366L22.5267 720.763C22.5267 720.753 22.5267 720.753 22.5267 720.753C22.5267 720.753 22.5366 720.753 22.5366 720.743C22.5465 720.743 22.5465 720.743 22.5465 720.743H22.5366C22.5366 720.743 22.5366 720.743 22.5267 720.743H22.5168C22.5168 720.743 22.5168 720.743 22.5168 720.753V720.763C22.5168 720.763 22.5168 720.763 22.5267 720.763C22.5267 720.763 22.5267 720.763 22.5267 720.753L22.5465 720.763ZM22.5267 720.803C22.5267 720.803 22.5267 720.803 22.5366 720.803H22.5465V720.822H22.5366V720.803H22.5267ZM233.613 412.408V412.418V412.408V412.418V412.408ZM233.603 412.408C233.603 412.408 233.603 412.408 233.594 412.408C233.594 412.408 233.594 412.408 233.594 412.398C233.594 412.398 233.594 412.398 233.594 412.388C233.594 412.388 233.594 412.388 233.603 412.388V412.408ZM233.584 412.418C233.584 412.418 233.584 412.418 233.574 412.418C233.574 412.418 233.574 412.418 233.574 412.408C233.574 412.408 233.574 412.408 233.574 412.398C233.574 412.398 233.574 412.398 233.584 412.398C233.584 412.398 233.584 412.398 233.594 412.398C233.594 412.398 233.594 412.398 233.594 412.408H233.584V412.418ZM233.584 412.418H233.594H233.584ZM233.564 412.408V412.418V412.408ZM233.544 412.418C233.544 412.418 233.544 412.418 233.554 412.418C233.554 412.418 233.554 412.418 233.554 412.427C233.554 412.427 233.554 412.427 233.554 412.437C233.554 412.437 233.554 412.437 233.544 412.437V412.418ZM233.534 412.427V412.408C233.534 412.408 233.534 412.408 233.534 412.418V412.427ZM233.515 412.427V412.408H233.524C233.524 412.408 233.524 412.408 233.534 412.408V412.418L233.515 412.427ZM233.515 412.408V412.418V412.408ZM233.495 412.427V412.418V412.427V412.408V412.418V412.427ZM233.475 412.427V412.418V412.427V412.418V412.437V412.427ZM233.445 412.418C233.445 412.418 233.445 412.418 233.455 412.418C233.455 412.418 233.455 412.418 233.455 412.427C233.455 412.427 233.455 412.427 233.455 412.437C233.455 412.437 233.455 412.437 233.445 412.437V412.418ZM233.416 412.427V412.408L233.426 412.418V412.408V412.427L233.416 412.418V412.427ZM233.396 412.427C233.396 412.427 233.396 412.427 233.386 412.427C233.386 412.427 233.386 412.427 233.386 412.418C233.386 412.418 233.386 412.418 233.386 412.408C233.386 412.408 233.386 412.408 233.396 412.408C233.396 412.408 233.396 412.408 233.406 412.408C233.406 412.408 233.406 412.408 233.406 412.418H233.396V412.427ZM233.396 412.427H233.406H233.396ZM233.376 412.418V412.427V412.437V412.427V412.437V412.418ZM233.366 412.427V412.437V412.427V412.437V412.427ZM233.327 412.427C233.327 412.427 233.327 412.427 233.337 412.427V412.437V412.427V412.437V412.427V412.437V412.418L233.327 412.427ZM233.307 412.437C233.307 412.437 233.307 412.437 233.317 412.437C233.317 412.437 233.317 412.437 233.317 412.447C233.317 412.447 233.317 412.447 233.317 412.457C233.317 412.457 233.317 412.457 233.307 412.457V412.437ZM233.297 412.447V412.427C233.297 412.427 233.297 412.427 233.297 412.437V412.447ZM233.278 412.427V412.437V412.427ZM22.9908 720.783V720.793V720.783H23.0007V720.793H23.0105L22.9908 720.783ZM22.971 720.793H22.9612C22.9612 720.793 22.9612 720.793 22.9612 720.803C22.9612 720.803 22.9612 720.803 22.9612 720.812H22.971C22.971 720.812 22.971 720.812 22.971 720.822C22.971 720.822 22.971 720.822 22.9612 720.822H22.9513C22.9513 720.822 22.9513 720.822 22.9513 720.812V720.803H22.9612H22.971V720.793ZM22.9414 720.803H22.9513C22.9513 720.803 22.9513 720.803 22.9513 720.812C22.9513 720.812 22.9513 720.812 22.9414 720.812H22.9315C22.9315 720.812 22.9315 720.812 22.9315 720.803V720.793C22.9315 720.793 22.9315 720.793 22.9414 720.793H22.9513V720.803H22.9315H22.9414ZM22.9414 720.793H22.9513H22.9414ZM22.9118 720.783V720.773H22.9217V720.783H22.9118ZM22.9217 720.783V720.803V720.812V720.793H22.9315L22.9217 720.783ZM22.8822 720.793C22.8822 720.793 22.8822 720.793 22.8822 720.783C22.8822 720.783 22.8822 720.783 22.892 720.783H22.9019V720.793V720.803H22.892H22.8822C22.8822 720.803 22.8822 720.803 22.8822 720.793ZM22.892 720.793C22.892 720.793 22.892 720.793 22.9019 720.793C22.9019 720.793 22.9019 720.793 22.9019 720.783C22.9019 720.783 22.9019 720.783 22.9019 720.793H22.892ZM22.8723 720.803H22.8624V720.783H22.8723V720.793C22.8723 720.793 22.8723 720.793 22.8723 720.803V720.812V720.803ZM22.8328 720.803V720.773H22.8427H22.8526C22.8526 720.773 22.8526 720.773 22.8624 720.773C22.8624 720.773 22.8624 720.773 22.8624 720.783C22.8624 720.783 22.8624 720.783 22.8624 720.793C22.8624 720.793 22.8624 720.793 22.8526 720.793V720.803H22.8427H22.8328ZM22.8328 720.773V720.783H22.8427C22.8427 720.783 22.8427 720.783 22.8328 720.783V720.773ZM22.8131 720.803H22.8032V720.793C22.8032 720.793 22.8032 720.793 22.8032 720.803V720.812H22.7933V720.793H22.8032C22.8032 720.793 22.8032 720.793 22.8131 720.793V720.803ZM22.7736 720.803C22.7736 720.803 22.7736 720.803 22.7637 720.803V720.793H22.7736V720.803C22.7736 720.803 22.7736 720.803 22.7736 720.812C22.7736 720.812 22.7736 720.812 22.7736 720.803V720.793H22.7834V720.812H22.7736V720.803ZM22.7242 720.793C22.7242 720.793 22.7242 720.793 22.7242 720.783C22.7242 720.783 22.7242 720.783 22.7242 720.773C22.7242 720.773 22.7242 720.773 22.7341 720.773H22.7439V720.783V720.793H22.7341C22.7341 720.793 22.7341 720.793 22.7242 720.793C22.7242 720.793 22.7242 720.793 22.7242 720.783V720.793ZM22.7341 720.793C22.7341 720.793 22.7341 720.793 22.7439 720.793C22.7439 720.793 22.7439 720.793 22.7439 720.783C22.7439 720.783 22.7439 720.783 22.7439 720.793H22.7341ZM22.6946 720.803V720.773H22.7044L22.7242 720.793V720.773H22.7341V720.803H22.7242L22.7044 720.783V720.803H22.6946ZM22.6649 720.793H22.6748C22.6748 720.793 22.6748 720.793 22.6748 720.803C22.6748 720.803 22.6748 720.803 22.6649 720.803H22.6551C22.6551 720.803 22.6551 720.803 22.6551 720.793V720.783C22.6551 720.783 22.6551 720.783 22.6649 720.783H22.6748V720.793H22.6551H22.6649ZM22.6649 720.783H22.6748H22.6649ZM22.6255 720.773V720.783H22.6353V720.793H22.6255V720.783V720.793H22.6156V720.763H22.6255V720.773ZM22.6156 720.783H22.6057V720.793V720.783H22.6156V720.793V720.783ZM22.5465 720.783H22.5563C22.5563 720.783 22.5563 720.783 22.5662 720.783C22.5662 720.783 22.5662 720.783 22.5761 720.783V720.793H22.5662V720.783V720.793H22.5563V720.783V720.793H22.5465V720.773V720.783ZM22.5168 720.793C22.5168 720.793 22.5168 720.793 22.5168 720.783C22.5168 720.783 22.5168 720.783 22.5168 720.773C22.5168 720.773 22.5168 720.773 22.5267 720.773H22.5366C22.5366 720.773 22.5366 720.783 22.5465 720.783V720.793H22.5366C22.5366 720.793 22.5366 720.793 22.5267 720.793C22.5267 720.793 22.5267 720.793 22.5267 720.783L22.5168 720.793ZM22.5267 720.793C22.5267 720.793 22.5267 720.793 22.5267 720.783C22.5267 720.783 22.5267 720.783 22.5168 720.783C22.5168 720.783 22.5168 720.783 22.5168 720.793H22.5267ZM22.507 720.803H22.4971V720.783H22.507V720.793C22.507 720.793 22.507 720.793 22.507 720.803V720.812V720.803ZM23.2475 720.674V720.664H23.2574V720.674H23.2475ZM23.2475 720.704V720.684H23.2574V720.704H23.2475ZM23.2179 720.684H23.2278L23.2376 720.704V720.684H23.2475L23.2376 720.704L23.2278 720.684H23.2179ZM23.1981 720.704V720.674H23.208V720.694L23.2179 720.684H23.2278L23.2179 720.694L23.2278 720.704H23.2179L23.208 720.694V720.704H23.1981ZM23.1685 720.704H23.1784H23.1685C23.1685 720.704 23.1685 720.704 23.1685 720.694C23.1685 720.694 23.1685 720.694 23.1685 720.684C23.1685 720.684 23.1685 720.684 23.1784 720.684H23.1883H23.1784C23.1784 720.684 23.1784 720.684 23.1883 720.684H23.1981C23.1981 720.684 23.1981 720.684 23.1981 720.694C23.1981 720.694 23.1981 720.694 23.1883 720.694H23.1784C23.1784 720.694 23.1784 720.694 23.1784 720.684L23.1685 720.704ZM23.1488 720.714L23.1389 720.694H23.1488L23.1586 720.704V720.694H23.1685L23.1586 720.714H23.1488ZM23.1093 720.704C23.1093 720.704 23.1093 720.704 23.1093 720.694C23.1093 720.694 23.1093 720.694 23.1192 720.694H23.129C23.129 720.694 23.129 720.694 23.1389 720.704V720.714H23.129C23.129 720.714 23.129 720.714 23.1192 720.714C23.1192 720.714 23.1192 720.714 23.1192 720.704H23.1093ZM23.1192 720.704C23.1192 720.704 23.1192 720.704 23.129 720.704C23.129 720.704 23.129 720.704 23.129 720.694C23.129 720.694 23.129 720.694 23.129 720.704H23.1192ZM23.0895 720.714H23.0994C23.0895 720.714 23.0895 720.714 23.0895 720.714C23.0895 720.714 23.0895 720.714 23.0895 720.704C23.0895 720.704 23.0895 720.704 23.0994 720.704H23.1093H23.0994C23.0994 720.704 23.0994 720.704 23.1093 720.704H23.1192C23.1192 720.704 23.1192 720.704 23.1192 720.714C23.1192 720.714 23.1192 720.714 23.1093 720.714H23.0994C23.0994 720.714 23.0994 720.714 23.0895 720.714ZM23.0698 720.704H23.0599C23.0599 720.704 23.0599 720.704 23.0599 720.694C23.0599 720.694 23.0599 720.694 23.0698 720.694C23.0698 720.694 23.0698 720.694 23.0797 720.694C23.0797 720.694 23.0797 720.694 23.0797 720.704V720.714H23.0698H23.0599C23.0599 720.714 23.0599 720.714 23.0599 720.704C23.0599 720.704 23.0599 720.704 23.0698 720.704ZM23.0599 720.714H23.05V720.704C23.05 720.704 23.05 720.704 23.05 720.714V720.724H23.0402V720.704H23.05C23.05 720.704 23.05 720.704 23.0599 720.704V720.714ZM23.0105 720.704H23.0007V720.694C23.0007 720.694 23.0007 720.694 23.0105 720.694C23.0105 720.694 23.0105 720.694 23.0204 720.694C23.0204 720.694 23.0204 720.694 23.0204 720.704V720.714H23.0105C23.0105 720.714 23.0105 720.714 23.0007 720.714C23.0007 720.714 23.0007 720.714 23.0105 720.714C23.0105 720.714 23.0105 720.714 23.0204 720.714L23.0105 720.704ZM22.9809 720.714V720.684H22.9908H23.0007C23.0007 720.684 23.0007 720.684 23.0105 720.684C23.0105 720.684 23.0105 720.684 23.0105 720.694C23.0105 720.694 23.0105 720.694 23.0105 720.704C23.0105 720.704 23.0105 720.704 23.0007 720.704V720.714H22.9908H22.9809ZM22.9809 720.684V720.694H22.9908C22.9908 720.694 22.9908 720.694 22.9809 720.694V720.684ZM22.9513 720.714H22.9414V720.694H22.9513V720.704C22.9513 720.704 22.9513 720.704 22.9513 720.714V720.724V720.714ZM22.9414 720.714H22.9315H22.9217C22.9217 720.714 22.9217 720.714 22.9217 720.704V720.694C22.9217 720.694 22.9217 720.694 22.9315 720.694H22.9414V720.684H22.9513V720.714H22.9414ZM22.9217 720.704C22.9217 720.704 22.9217 720.704 22.9217 720.714C22.9217 720.714 22.9217 720.714 22.9217 720.704C22.9217 720.704 22.9217 720.704 22.9217 720.714V720.704ZM22.9118 720.714H22.9019V720.704C22.9019 720.704 22.9019 720.704 22.9019 720.714V720.724H22.892V720.704H22.9019C22.9019 720.704 22.9019 720.704 22.9118 720.704V720.714ZM22.8624 720.704H22.8526C22.8526 720.704 22.8526 720.704 22.8526 720.694C22.8526 720.694 22.8526 720.694 22.8624 720.694C22.8624 720.694 22.8624 720.694 22.8723 720.694C22.8723 720.694 22.8723 720.694 22.8723 720.704V720.714H22.8624C22.8624 720.714 22.8624 720.714 22.8526 720.714C22.8526 720.714 22.8526 720.714 22.8526 720.704C22.8526 720.704 22.8526 720.704 22.8624 720.704C22.8624 720.704 22.8624 720.704 22.8723 720.704H22.8624ZM22.8328 720.714H22.8427H22.8328C22.8328 720.714 22.8328 720.714 22.8328 720.704C22.8328 720.704 22.8328 720.704 22.8427 720.704H22.8526H22.8427C22.8427 720.704 22.8427 720.704 22.8526 720.704H22.8624V720.714C22.8624 720.714 22.8624 720.714 22.8526 720.714H22.8427C22.8427 720.714 22.8427 720.714 22.8427 720.704L22.8328 720.714ZM22.8131 720.724V720.694H22.8229V720.714L22.8328 720.704H22.8427L22.8328 720.714L22.8427 720.724H22.8328L22.8229 720.714V720.724H22.8131ZM22.8032 720.714H22.8131C22.8131 720.714 22.8131 720.714 22.8131 720.724C22.8131 720.724 22.8131 720.724 22.8032 720.724H22.7933C22.7933 720.724 22.7933 720.724 22.7933 720.714V720.704C22.7933 720.704 22.7933 720.704 22.8032 720.704H22.8131V720.714H22.7933H22.8032ZM22.8032 720.704H22.8131H22.8032ZM22.7736 720.724V720.694H22.7834V720.724H22.7736ZM22.7341 720.714V720.704C22.7341 720.704 22.7341 720.704 22.7341 720.694H22.7439H22.7538V720.704V720.714C22.7538 720.714 22.7439 720.714 22.7439 720.724H22.7341L22.7242 720.714H22.7341ZM22.7439 720.714V720.724C22.7439 720.724 22.7439 720.724 22.7538 720.724H22.7637C22.7637 720.724 22.7637 720.724 22.7637 720.714V720.704C22.7637 720.704 22.7637 720.704 22.7538 720.704H22.7439C22.7439 720.704 22.7439 720.704 22.7439 720.714ZM22.6946 720.714H22.7044L22.7143 720.733V720.714H22.7242L22.7143 720.733L22.7044 720.714H22.6946ZM22.6748 720.743V720.714H22.6847V720.724C22.6847 720.724 22.6847 720.724 22.6946 720.724H22.7044C22.7044 720.724 22.7044 720.724 22.7044 720.733V720.743C22.7044 720.743 22.7044 720.743 22.6946 720.743H22.6847H22.6748ZM22.6847 720.733C22.6847 720.733 22.6847 720.733 22.6847 720.743C22.6847 720.743 22.6847 720.743 22.6847 720.733C22.6847 720.733 22.6847 720.733 22.6847 720.724C22.6847 720.724 22.6847 720.724 22.6847 720.733ZM22.6649 720.743H22.6551H22.6452C22.6452 720.743 22.6452 720.743 22.6452 720.733V720.724C22.6452 720.724 22.6452 720.724 22.6551 720.724H22.6649V720.714H22.6748V720.743H22.6649ZM22.6452 720.733C22.6452 720.733 22.6452 720.733 22.6452 720.743C22.6452 720.743 22.6452 720.743 22.6452 720.733C22.6452 720.733 22.6452 720.733 22.6452 720.743V720.733ZM22.6255 720.743H22.6353C22.6353 720.743 22.6353 720.743 22.6353 720.753C22.6353 720.753 22.6353 720.753 22.6255 720.753C22.6156 720.753 22.6156 720.753 22.6156 720.753C22.6156 720.753 22.6156 720.753 22.6156 720.743V720.733C22.6156 720.733 22.6156 720.733 22.6255 720.733H22.6353V720.743H22.6156H22.6255ZM22.6255 720.733H22.6353H22.6255ZM22.6057 720.724H22.5958V720.733V720.724H22.6057V720.733V720.724ZM22.5761 720.733H22.5662C22.5662 720.733 22.5662 720.733 22.5662 720.724C22.5662 720.724 22.5662 720.724 22.5761 720.724H22.586C22.586 720.724 22.586 720.724 22.586 720.733V720.743H22.5761C22.5761 720.743 22.5761 720.743 22.5662 720.743C22.5662 720.743 22.5662 720.743 22.5662 720.733H22.5761ZM22.5563 720.743H22.5662C22.5662 720.743 22.5662 720.743 22.5662 720.753C22.5662 720.753 22.5662 720.753 22.5563 720.753H22.5465C22.5465 720.753 22.5465 720.753 22.5465 720.743V720.733C22.5465 720.733 22.5465 720.733 22.5563 720.733H22.5662C22.5662 720.733 22.5662 720.733 22.5662 720.743H22.5465H22.5563ZM22.5563 720.733H22.5662H22.5563ZM22.5267 720.753H22.5168V720.733H22.5267V720.743C22.5267 720.743 22.5267 720.743 22.5267 720.753V720.763V720.753ZM154.128 448.981C163.192 451.272 172.908 449.633 180.866 446.769L306.503 401.645L306.523 401.635C310.176 400.401 312.961 398.91 315.015 397.241C317.878 394.921 319.33 392.255 319.754 389.47C320.189 386.627 319.576 383.615 318.332 380.673C317.177 377.967 315.499 375.341 313.573 372.961C279.824 335.203 248.79 302.194 231.174 286.741L56.5624 344.277C85.1674 372.092 107.157 399.344 131.496 430.546C137.984 438.86 142.437 446.019 154.128 448.971V448.981ZM313.119 368.261L313.129 368.251C314.067 369.219 314.985 370.246 315.864 371.322C317.621 373.287 319.389 375.262 321.156 377.256C365.224 426.784 412.915 483.145 440.968 518.494C449.4 529.109 456.411 538.775 461.229 547.603C466.324 556.943 470.846 568.93 466.749 579.091C469.178 579.871 471.923 581.303 474.391 583.179C476.238 584.581 477.956 586.24 479.289 588.066L479.308 588.007C479.822 586.664 480.187 585.272 480.424 583.85C481.5 577.531 480.098 570.658 478.044 564.616C474.569 554.406 468.309 543.979 462.197 535.537L462.177 535.507C444.187 509.282 395.626 451.064 346.444 395.424C300.283 343.201 253.598 293.248 231.194 274.162L231.165 274.132C228.874 272.058 226.435 270.834 224.095 270.251C221.863 269.699 219.721 269.708 217.874 270.103C216.6 270.38 215.475 270.824 214.586 271.387C215.811 271.456 217.094 271.762 218.427 272.305C220.748 273.263 223.216 274.971 225.635 277.469L227.077 278.96C166.727 298.817 106.377 318.674 46.0367 338.54C43.0943 336.091 40.1617 333.633 37.2192 331.184C35.6986 330.009 33.7831 329.436 31.7787 329.338C29.7545 329.239 27.6414 329.624 25.716 330.364C24.3139 330.908 23.0204 331.628 21.9441 332.507C20.463 333.712 19.2485 335.301 18.9622 337.148C23.3857 337.286 27.4736 339.745 30.6629 342.421C51.112 359.621 96.1276 414.787 144.678 474.278C195.608 536.692 250.429 603.875 284.632 636.735C292.304 644.111 298.831 649.354 305.101 652.86C311.282 656.325 317.256 658.113 323.911 658.616C324.78 658.685 325.669 658.735 326.577 658.754C326.172 655.871 326.004 652.257 326.153 648.791C326.281 645.938 326.626 643.163 327.258 640.932C326.607 640.932 325.955 640.922 325.313 640.892C318.747 640.685 312.615 639.707 307.086 637.851C295.691 634.01 288.849 626.219 281.009 618.192L280.92 618.103C271.826 608.772 263.127 599.046 254.635 589.251L254.477 589.064C243.626 576.543 233.06 563.816 222.633 550.999L222.337 550.644C210.321 535.862 198.472 520.972 186.722 506.023L186.593 505.865C180.353 497.926 174.132 489.978 167.931 482.029C160.625 472.659 153.328 463.288 146.031 453.908C143.602 450.778 141.202 447.697 138.843 444.656C135.446 440.282 132.039 435.898 128.623 431.524C104.076 400.065 81.8893 372.625 52.8695 344.632L51.3193 343.132C111.482 323.305 171.644 303.478 231.816 283.66L232.488 284.243C249.629 299.133 279.922 331.233 313.109 368.271L313.119 368.261ZM322.065 382.519C322.786 384.987 323.042 387.476 322.677 389.905C322.163 393.301 320.426 396.52 316.999 399.295C314.689 401.161 311.618 402.81 307.619 404.173L181.982 449.297C173.53 452.328 163.162 454.066 153.397 451.598C150.672 450.906 148.006 449.899 145.438 448.507C146.436 449.791 147.433 451.074 148.44 452.368C155.737 461.738 163.024 471.118 170.331 480.479L170.509 480.716C176.621 488.546 182.733 496.366 188.874 504.177L189.141 504.512C189.862 505.431 190.592 506.349 191.313 507.267C202.372 521.298 213.5 535.29 224.796 549.173L224.944 549.35C235.391 562.186 245.976 574.944 256.847 587.494L256.876 587.533C265.368 597.328 274.057 607.064 283.161 616.395L283.171 616.405C290.507 623.929 297.33 631.719 308.044 635.333C313.247 637.081 319.073 638.009 325.343 638.206C325.787 638.216 326.222 638.226 326.676 638.236C326.212 637.703 325.896 637.051 325.817 636.33C325.59 634.356 327.15 632.618 329.312 632.45C350.097 630.791 377.586 622.151 402.212 611.241C427.875 599.876 450.19 586.19 458.227 575.585C459.452 573.966 461.9 573.591 463.698 574.746C464.112 575.013 464.448 575.329 464.724 575.694C466.907 566.758 463.125 557.171 458.78 549.133C454.061 540.385 447.05 530.728 438.598 520.074C411.267 485.643 365.234 431.188 322.075 382.549L322.065 382.519ZM446.724 631.472C446.803 631.472 446.892 631.463 446.981 631.463C453.458 631.097 459.57 629.024 464.152 625.291C468.605 621.668 471.616 616.464 472.1 609.73C468.644 614.381 464.507 618.725 460.153 622.112C456.44 625.005 451.908 628.175 446.724 631.463V631.472ZM475.033 605.454C475.132 606.847 475.151 608.19 475.072 609.493C474.638 617.214 471.231 623.178 466.136 627.335C461.071 631.453 454.347 633.753 447.228 634.158C445.648 634.247 444.038 634.247 442.439 634.148C420.203 647.666 388.191 662.655 357.641 669.872C341.911 673.595 326.538 675.254 313.03 673.615C311.855 676.024 309.87 678.305 307.293 680.191C300.144 685.394 290.576 686.303 281.956 683.341C276.091 681.326 269.989 677.367 264.164 670.751L107.483 492.683C71.9856 484.004 45.9182 465.54 28.3425 444.34C5.6619 416.979 -2.86925 385.017 0.734765 363.64C1.83078 356.294 4.05243 346.607 9.58188 341.088C11.4876 339.182 13.6302 337.958 15.9704 337.434C16.1481 334.788 17.57 332.537 19.6435 330.759C21.0259 329.575 22.7143 328.587 24.541 327.886C26.8515 326.997 29.4089 326.543 31.8774 326.662C34.2472 326.78 36.5281 327.422 38.4634 328.696L209.965 272.305C210.301 271.565 210.824 270.854 211.515 270.222C212.858 268.988 214.833 267.99 217.163 267.497C219.444 267.013 222.1 266.983 224.835 267.674C227.63 268.375 230.523 269.807 233.208 272.226C255.692 291.382 302.485 341.443 348.744 393.785C397.976 449.494 446.616 507.791 464.675 534.105C470.935 542.754 477.353 553.458 480.928 563.984C483.238 570.787 484.68 578.449 483.159 585.479C482.606 588.047 481.481 590.653 480.74 593.25C479.634 597.15 477.64 601.357 475.053 605.474L475.033 605.454ZM477.758 590.92C476.534 588.787 474.648 586.832 472.545 585.242C470.195 583.455 467.608 582.142 465.425 581.51C458.593 591.611 433.325 607.854 404.138 620.749C379.502 631.63 351.993 640.241 330.369 640.882C329.638 643.005 329.253 645.918 329.115 648.949C328.957 652.405 329.144 655.99 329.559 658.764C340.105 658.626 352.763 656.236 365.57 652.731C385.93 647.172 406.616 638.819 419.896 632.302C433.779 625.479 446.487 617.925 456.776 610.451C466.146 603.638 473.463 596.923 477.778 590.91L477.758 590.92ZM97.2631 365.22L100.798 369.396C100.907 369.525 101.015 369.643 101.124 369.772L140.58 416.426C151.086 428.423 155.303 427.051 167.596 423.032L168.307 422.795L291.751 379.32L232.823 315.81C230.888 313.756 229.832 312.69 228.726 312.443C227.541 312.177 225.813 312.621 222.535 313.589L100.225 354.378C99.3367 354.734 98.5862 355.119 97.9642 355.543C96.3942 356.61 95.5944 357.903 95.3574 359.226C95.1106 360.589 95.4167 362.021 96.0585 363.324C96.3942 364.005 96.8089 364.647 97.273 365.22H97.2631ZM98.8035 371.411C98.0629 370.542 97.4606 369.851 96.9076 369.229C95.5648 367.688 94.5774 366.572 93.116 364.558C90.1736 360.5 88.2975 357.182 88.5147 354.26C88.7517 351.139 91.2005 348.74 96.9373 346.834L222.238 305.117L222.317 305.097C225.852 304.139 228.597 303.823 231.303 304.593C233.969 305.363 236.418 307.161 239.35 310.439L294.931 370.552L295.365 371.016C296.669 372.408 298.308 374.156 298.851 375.953C299.522 378.194 298.723 380.208 294.536 381.265L169.363 425.352L169.334 425.362L168.623 425.589C154.848 430.082 150.119 431.632 138.26 418.075L138.25 418.056L98.8035 371.411ZM294.664 378.352C295.918 377.858 296.205 377.236 296.007 376.595C295.652 375.4 294.26 373.919 293.154 372.734C293.085 372.665 293.045 372.615 292.699 372.25L237.109 312.117C234.561 309.274 232.547 307.743 230.483 307.141C228.479 306.568 226.247 306.845 223.305 307.634L98.0037 349.352C93.5209 350.843 91.6349 352.492 91.4769 354.477C91.3979 355.583 91.783 356.866 92.5236 358.328C92.958 356.511 94.0837 354.773 96.1671 353.361C96.9768 352.808 97.9247 352.314 99.0207 351.88L99.0997 351.85L221.468 311.041L221.518 311.031C225.349 309.906 227.422 309.392 229.348 309.827C231.352 310.281 232.685 311.584 235.045 314.092L294.664 378.342V378.352ZM318.846 568.269L318.875 568.259H318.885L318.935 568.249C320.307 567.765 321.788 567.518 323.378 567.815C324.119 567.953 324.859 568.2 325.6 568.595C326.597 569.118 327.446 569.819 328.206 570.609V570.619L333.242 575.862L333.252 575.872C335.809 578.676 337.261 581.382 336.945 583.899C336.609 586.506 334.466 588.698 329.816 590.298L303.472 600.083C294.003 603.717 291.742 601.347 288.542 597.99C288.266 597.693 287.97 597.387 287.683 597.101C287.16 596.568 286.716 596.035 286.252 595.472C285.965 595.116 285.669 594.761 285.343 594.395C281.097 589.607 281.621 583.751 286.469 580.147C287.575 579.328 288.987 578.558 290.695 577.975L318.846 568.279V568.269ZM324.75 571.28L324.721 571.261C324.642 571.201 324.563 571.152 324.484 571.103L324.454 571.083C324.148 570.895 323.822 570.737 323.477 570.629C322.549 570.323 321.403 570.313 319.952 570.797L291.751 580.513C290.715 580.888 289.925 581.293 289.332 581.717C288.562 582.27 288.157 582.833 288.009 583.366C287.871 583.87 287.95 584.373 288.157 584.828C288.296 585.134 288.483 585.41 288.7 585.667L294.062 591.848C294.961 592.865 295.592 593.319 296.234 593.379C297.004 593.448 298.091 593.082 299.74 592.46H299.749L325.708 582.853C326.251 582.636 326.498 582.547 326.745 582.448C328.157 581.905 329.52 581.382 330.487 580.779C331.652 580.058 332.116 579.111 330.882 577.432L326.004 572.347C325.609 571.942 325.195 571.567 324.75 571.261V571.28ZM333.795 581.767C333.37 582.231 332.818 582.655 332.186 583.05C331.001 583.781 329.5 584.354 327.95 584.956C327.495 585.124 327.041 585.302 326.903 585.361L326.873 585.371L300.924 594.968C298.871 595.748 297.439 596.202 296.017 596.064C294.467 595.926 293.252 595.166 291.801 593.517L291.791 593.507L286.42 587.316C286.163 587.02 285.926 586.694 285.718 586.348C284.909 588.501 285.067 589.814 287.634 592.717C287.98 593.102 288.296 593.497 288.612 593.872C289.046 594.396 289.461 594.899 289.856 595.304C290.182 595.63 290.478 595.936 290.754 596.232C293.114 598.701 294.793 600.458 302.297 597.575C310.7 594.218 320.11 590.752 328.69 587.77C332.205 586.565 333.805 585.124 334.012 583.514C334.081 582.971 334.002 582.379 333.795 581.767ZM294.743 540.523L294.773 540.513H294.783L294.832 540.493C296.205 540.009 297.686 539.763 299.276 540.059C300.016 540.197 300.757 540.444 301.497 540.839C302.494 541.362 303.344 542.073 304.104 542.853V542.863L309.14 548.106L309.15 548.116C311.707 550.92 313.158 553.626 312.842 556.144C312.507 558.75 310.364 560.942 305.713 562.542L279.369 572.327C269.9 575.961 267.639 573.581 264.44 570.234C264.085 569.859 263.719 569.473 263.581 569.345C263.058 568.812 262.613 568.279 262.149 567.716C261.863 567.361 261.567 567.005 261.241 566.64C256.995 561.851 257.518 555.995 262.366 552.391C263.462 551.572 264.884 550.802 266.592 550.219L294.743 540.523ZM300.648 543.534L300.618 543.515C300.539 543.455 300.46 543.406 300.381 543.357L300.352 543.337C300.046 543.149 299.72 542.991 299.374 542.883C298.446 542.577 297.301 542.567 295.849 543.051L267.649 552.767C266.612 553.142 265.822 553.557 265.23 553.971C264.45 554.524 264.055 555.097 263.907 555.62C263.769 556.124 263.848 556.627 264.055 557.082C264.193 557.388 264.381 557.664 264.598 557.921L269.969 564.102C270.868 565.119 271.5 565.583 272.142 565.632C272.902 565.702 273.998 565.336 275.647 564.714H275.657L301.616 555.107C302.149 554.899 302.406 554.801 302.652 554.702C304.064 554.159 305.427 553.636 306.395 553.033C307.56 552.312 308.024 551.365 306.79 549.686L301.912 544.601C301.517 544.196 301.102 543.821 300.658 543.515L300.648 543.534ZM309.693 554.021C309.268 554.485 308.715 554.909 308.083 555.304C306.898 556.035 305.397 556.608 303.847 557.21C303.403 557.378 302.949 557.556 302.801 557.615L302.771 557.625L276.822 567.222C274.768 568.002 273.336 568.456 271.915 568.318C270.364 568.18 269.15 567.42 267.689 565.771L267.679 565.761L262.307 559.57C262.05 559.274 261.814 558.948 261.606 558.602C260.796 560.755 260.954 562.068 263.522 564.971C263.867 565.356 264.183 565.751 264.499 566.126C264.934 566.65 265.348 567.153 265.743 567.558C266.227 568.042 266.444 568.269 266.652 568.486C269.012 570.964 270.68 572.712 278.194 569.829C286.597 566.472 296.007 563.006 304.588 560.024C308.103 558.819 309.702 557.378 309.91 555.768C309.979 555.225 309.9 554.633 309.693 554.021ZM270.641 512.777L270.67 512.767H270.68L270.73 512.747C272.102 512.263 273.583 512.017 275.173 512.313C275.904 512.451 276.644 512.698 277.385 513.093C278.392 513.616 279.241 514.327 280.001 515.117V515.127L285.037 520.37L285.047 520.38C287.604 523.184 289.056 525.89 288.74 528.398C288.404 531.004 286.262 533.196 281.611 534.796L255.267 544.581C245.798 548.215 243.537 545.845 240.338 542.498C239.982 542.122 239.617 541.737 239.479 541.609C238.955 541.086 238.511 540.543 238.047 539.98C237.76 539.624 237.464 539.269 237.138 538.904C232.893 534.115 233.416 528.259 238.264 524.655C239.36 523.836 240.782 523.066 242.49 522.473L270.641 512.777ZM276.546 515.788L276.516 515.769C276.437 515.71 276.358 515.66 276.269 515.611L276.239 515.591C275.933 515.403 275.607 515.245 275.272 515.137C274.344 514.831 273.198 514.821 271.747 515.305L243.547 525.021C242.51 525.396 241.72 525.801 241.127 526.225C240.357 526.778 239.952 527.341 239.804 527.884C239.666 528.378 239.745 528.891 239.952 529.345C240.091 529.652 240.278 529.928 240.496 530.185L245.857 536.366C246.756 537.383 247.388 537.837 248.029 537.896C248.8 537.966 249.886 537.6 251.535 536.978H251.545L277.503 527.371C278.036 527.163 278.293 527.065 278.54 526.966C279.952 526.423 281.315 525.9 282.282 525.297C283.447 524.576 283.912 523.628 282.677 521.95L277.8 516.865C277.405 516.46 276.99 516.085 276.546 515.779V515.788ZM285.58 526.275C285.156 526.739 284.603 527.163 283.971 527.558C282.786 528.289 281.285 528.862 279.735 529.464C279.29 529.632 278.836 529.81 278.688 529.869L278.659 529.879L252.71 539.476C250.656 540.256 249.224 540.71 247.802 540.582C246.252 540.434 245.038 539.684 243.576 538.035L243.566 538.025L238.195 531.834C237.938 531.538 237.701 531.212 237.494 530.866C236.684 533.019 236.842 534.332 239.409 537.235C239.755 537.62 240.071 538.015 240.387 538.39C240.821 538.913 241.236 539.427 241.631 539.822C242.115 540.306 242.332 540.533 242.539 540.75C244.899 543.228 246.568 544.976 254.082 542.093C262.485 538.736 271.895 535.27 280.475 532.288C283.991 531.083 285.59 529.642 285.797 528.032C285.867 527.489 285.788 526.907 285.58 526.285V526.275ZM246.529 485.031L246.558 485.021H246.568L246.617 485.001C247.99 484.518 249.471 484.271 251.061 484.567C251.791 484.705 252.532 484.952 253.272 485.347C254.28 485.87 255.129 486.581 255.889 487.361V487.371L260.925 492.614L260.935 492.624C263.492 495.428 264.944 498.134 264.628 500.652C264.292 503.258 262.149 505.45 257.499 507.05L231.155 516.835C221.686 520.469 219.424 518.099 216.225 514.742C215.87 514.367 215.495 513.982 215.366 513.853C214.843 513.32 214.399 512.787 213.934 512.224C213.648 511.869 213.352 511.513 213.026 511.148C208.78 506.359 209.304 500.504 214.152 496.9C215.248 496.08 216.67 495.31 218.378 494.717L246.529 485.021V485.031ZM252.433 488.043L252.404 488.023C252.325 487.964 252.246 487.914 252.157 487.865L252.127 487.845C251.821 487.657 251.495 487.499 251.159 487.391C250.231 487.085 249.086 487.075 247.634 487.559L219.434 497.275C218.397 497.65 217.608 498.065 217.015 498.479C216.245 499.032 215.84 499.595 215.692 500.138C215.554 500.642 215.633 501.145 215.84 501.6C215.978 501.906 216.166 502.182 216.383 502.439L221.745 508.62C222.643 509.637 223.275 510.091 223.917 510.15C224.687 510.22 225.773 509.854 227.422 509.232H227.432L253.391 499.625C253.924 499.417 254.181 499.319 254.428 499.22C255.84 498.677 257.202 498.154 258.17 497.551C259.325 496.83 259.799 495.883 258.565 494.204L253.687 489.119C253.292 488.714 252.878 488.339 252.433 488.033V488.043ZM261.468 498.529C261.043 498.993 260.49 499.417 259.858 499.812C258.674 500.543 257.173 501.116 255.622 501.718C255.178 501.886 254.724 502.064 254.576 502.123L254.546 502.133L228.597 511.73C226.544 512.51 225.112 512.965 223.69 512.836C222.14 512.688 220.925 511.938 219.464 510.289L219.454 510.279L214.083 504.088C213.826 503.792 213.589 503.466 213.382 503.12C212.572 505.273 212.73 506.586 215.297 509.489C215.643 509.874 215.959 510.269 216.275 510.644C216.709 511.167 217.124 511.681 217.519 512.076C218.003 512.56 218.22 512.787 218.427 513.004C220.787 515.482 222.456 517.23 229.97 514.347C238.373 510.99 247.783 507.524 256.363 504.542C259.878 503.337 261.478 501.886 261.685 500.286C261.754 499.743 261.675 499.161 261.468 498.539V498.529ZM222.416 457.285L222.446 457.275H222.456L222.505 457.265C223.878 456.781 225.359 456.535 226.948 456.831C227.679 456.969 228.429 457.216 229.17 457.611C230.167 458.134 231.026 458.845 231.787 459.625V459.635L236.822 464.878L236.832 464.888C239.39 467.692 240.841 470.398 240.525 472.906C240.189 475.512 238.047 477.714 233.396 479.314L207.052 489.099C197.583 492.733 195.322 490.363 192.123 487.016C191.767 486.64 191.402 486.255 191.264 486.127C190.74 485.594 190.296 485.061 189.832 484.498C189.546 484.142 189.24 483.787 188.924 483.422C184.678 478.633 185.201 472.777 190.049 469.173C191.145 468.354 192.567 467.584 194.275 466.991L222.426 457.295L222.416 457.285ZM228.331 460.297C228.232 460.227 228.143 460.168 228.044 460.109L228.015 460.089C227.709 459.902 227.383 459.754 227.047 459.635C226.119 459.329 224.974 459.319 223.522 459.803L195.322 469.519C194.285 469.894 193.495 470.299 192.903 470.724C192.133 471.276 191.718 471.839 191.58 472.372C191.441 472.876 191.52 473.38 191.728 473.834C191.866 474.14 192.054 474.416 192.271 474.673L197.642 480.854C198.541 481.871 199.173 482.326 199.805 482.385C200.575 482.454 201.661 482.089 203.31 481.466H203.32L229.279 471.859C229.802 471.652 230.069 471.553 230.315 471.454C231.727 470.911 233.09 470.388 234.058 469.786C235.223 469.065 235.687 468.117 234.453 466.438L229.575 461.353C229.18 460.948 228.775 460.583 228.331 460.267V460.297ZM237.365 470.783C236.941 471.247 236.388 471.671 235.746 472.066C234.571 472.797 233.07 473.37 231.51 473.972C231.066 474.14 230.631 474.308 230.464 474.377L230.434 474.387L204.485 483.984C202.431 484.764 200.999 485.219 199.578 485.08C198.027 484.932 196.813 484.172 195.352 482.533L195.342 482.523L189.97 476.332C189.713 476.036 189.477 475.71 189.269 475.364C188.459 477.517 188.617 478.83 191.185 481.733C191.53 482.118 191.846 482.513 192.162 482.888C192.597 483.412 193.011 483.925 193.406 484.32C193.89 484.804 194.107 485.031 194.315 485.248C196.675 487.717 198.343 489.474 205.857 486.591C214.26 483.234 223.67 479.768 232.251 476.786C235.766 475.582 237.365 474.14 237.573 472.53C237.642 471.987 237.563 471.395 237.356 470.783H237.365ZM423.955 527.262L423.984 527.252H423.994L424.044 527.233C425.416 526.749 426.897 526.502 428.477 526.798C429.217 526.936 429.958 527.183 430.699 527.578C431.696 528.101 432.555 528.802 433.305 529.592V529.602L438.341 534.845L438.351 534.855C440.908 537.659 442.37 540.375 442.044 542.873C441.708 545.48 439.565 547.672 434.915 549.271L408.571 559.056C399.102 562.69 396.841 560.32 393.641 556.973C393.286 556.598 392.921 556.213 392.782 556.084C392.259 555.551 391.815 555.018 391.351 554.455C391.064 554.1 390.768 553.744 390.442 553.379C386.196 548.59 386.72 542.735 391.568 539.131C392.664 538.311 394.086 537.541 395.794 536.949L423.945 527.252L423.955 527.262ZM429.859 530.274L429.83 530.254C429.751 530.195 429.672 530.145 429.583 530.096L429.553 530.076C429.247 529.889 428.921 529.741 428.586 529.622C427.648 529.316 426.512 529.306 425.061 529.79L396.86 539.506C395.824 539.881 395.034 540.286 394.441 540.71C393.671 541.263 393.266 541.826 393.118 542.369C392.98 542.863 393.059 543.376 393.266 543.831C393.404 544.127 393.592 544.413 393.809 544.67L399.171 550.851C400.069 551.868 400.701 552.322 401.343 552.382C402.103 552.451 403.199 552.085 404.848 551.463H404.858L430.817 541.856C431.36 541.639 431.607 541.55 431.854 541.451C433.266 540.908 434.628 540.385 435.596 539.782C436.761 539.062 437.225 538.114 435.991 536.435L431.113 531.35C430.718 530.945 430.314 530.57 429.869 530.264L429.859 530.274ZM438.894 540.76C438.469 541.224 437.916 541.649 437.285 542.043C436.1 542.774 434.599 543.347 433.049 543.949C432.604 544.127 432.14 544.295 432.002 544.354L431.972 544.364L406.023 553.961C403.97 554.741 402.538 555.196 401.116 555.057C399.566 554.919 398.351 554.159 396.9 552.51L396.89 552.5L391.519 546.309C391.262 546.013 391.015 545.687 390.817 545.341C390.008 547.494 390.166 548.807 392.733 551.7C393.079 552.085 393.395 552.48 393.711 552.855C394.145 553.379 394.56 553.882 394.955 554.287C395.439 554.771 395.656 554.998 395.863 555.215C398.223 557.684 399.892 559.441 407.406 556.558C415.809 553.201 425.219 549.735 433.799 546.753C437.314 545.549 438.914 544.107 439.121 542.498C439.19 541.955 439.111 541.362 438.904 540.75L438.894 540.76ZM400.385 500.069L400.415 500.059H400.425L400.474 500.039C401.847 499.556 403.328 499.309 404.918 499.605C405.658 499.743 406.399 499.99 407.139 500.385C408.136 500.908 408.986 501.619 409.746 502.399V502.409L414.782 507.652L414.792 507.662C417.349 510.466 418.8 513.182 418.484 515.69C418.149 518.297 416.006 520.489 411.355 522.088L385.012 531.873C375.542 535.507 373.281 533.127 370.082 529.78C369.727 529.405 369.361 529.02 369.223 528.891C368.7 528.358 368.255 527.825 367.791 527.262C367.505 526.907 367.209 526.551 366.883 526.186C362.637 521.397 363.16 515.542 368.009 511.938C369.114 511.118 370.526 510.348 372.235 509.765L400.385 500.069ZM406.29 503.081L406.26 503.061C406.181 503.002 406.102 502.952 406.023 502.903L405.994 502.883C405.688 502.696 405.362 502.538 405.016 502.429C404.088 502.123 402.943 502.113 401.491 502.597L373.291 512.313C372.254 512.688 371.464 513.093 370.872 513.517C370.102 514.07 369.687 514.633 369.549 515.166C369.411 515.67 369.49 516.174 369.697 516.628C369.835 516.934 370.023 517.21 370.24 517.467L375.602 523.648C376.5 524.665 377.132 525.119 377.774 525.179C378.534 525.248 379.63 524.882 381.279 524.26H381.289L407.248 514.653C407.781 514.446 408.038 514.347 408.285 514.248C409.697 513.705 411.059 513.182 412.027 512.579C413.192 511.859 413.656 510.911 412.422 509.232L407.544 504.147C407.149 503.742 406.734 503.367 406.29 503.061V503.081ZM415.325 513.567C414.9 514.031 414.347 514.455 413.715 514.85C412.53 515.581 411.039 516.154 409.479 516.756C409.035 516.924 408.581 517.102 408.433 517.161L408.403 517.171L382.454 526.768C380.4 527.548 378.969 528.003 377.547 527.864C375.997 527.726 374.782 526.966 373.331 525.317L373.321 525.307L367.949 519.116C367.693 518.82 367.456 518.494 367.248 518.148C366.439 520.301 366.596 521.614 369.164 524.517C369.509 524.902 369.825 525.297 370.141 525.672C370.576 526.196 370.99 526.699 371.385 527.104C371.869 527.588 372.086 527.815 372.294 528.032C374.654 530.501 376.332 532.258 383.837 529.375C392.239 526.018 401.649 522.552 410.23 519.57C413.745 518.366 415.345 516.924 415.552 515.315C415.621 514.772 415.542 514.179 415.335 513.567H415.325ZM376.431 472.136L376.461 472.126H376.471L376.52 472.106C377.892 471.622 379.373 471.375 380.953 471.671C381.684 471.81 382.425 472.057 383.165 472.452C384.172 472.975 385.021 473.686 385.782 474.466V474.476L390.817 479.719L390.827 479.729C393.385 482.533 394.836 485.238 394.52 487.756C394.184 490.363 392.042 492.555 387.391 494.155L361.047 503.94C351.578 507.573 349.317 505.204 346.118 501.846C345.762 501.471 345.397 501.096 345.259 500.958C344.735 500.425 344.291 499.891 343.827 499.329C343.541 498.973 343.244 498.618 342.919 498.252C338.673 493.463 339.196 487.608 344.044 484.004C345.14 483.185 346.562 482.414 348.27 481.832L376.421 472.136H376.431ZM382.336 475.147L382.306 475.127C382.227 475.068 382.148 475.019 382.059 474.969L382.03 474.95C381.723 474.762 381.398 474.614 381.062 474.495C380.124 474.189 378.988 474.179 377.537 474.663L349.337 484.379C348.3 484.755 347.51 485.169 346.918 485.584C346.147 486.137 345.743 486.7 345.594 487.233C345.456 487.736 345.535 488.24 345.743 488.694C345.881 489 346.068 489.277 346.286 489.534L351.647 495.715C352.546 496.732 353.178 497.186 353.82 497.245C354.59 497.314 355.676 496.949 357.325 496.327H357.335L383.293 486.719C383.827 486.512 384.083 486.413 384.33 486.315C385.742 485.772 387.105 485.248 388.072 484.646C389.238 483.925 389.702 482.977 388.467 481.299L383.59 476.214C383.195 475.809 382.78 475.433 382.336 475.127V475.147ZM391.37 485.633C390.946 486.097 390.393 486.522 389.761 486.917C388.576 487.648 387.085 488.22 385.525 488.823C385.081 488.99 384.636 489.168 384.478 489.227L384.449 489.237L358.5 498.835C356.446 499.615 355.014 500.069 353.592 499.931C352.042 499.793 350.828 499.032 349.376 497.383L349.366 497.374L343.995 491.182C343.738 490.886 343.491 490.56 343.294 490.215C342.484 492.367 342.642 493.681 345.209 496.584C345.555 496.969 345.871 497.364 346.187 497.739C346.621 498.262 347.036 498.766 347.431 499.171C347.915 499.654 348.132 499.882 348.339 500.099C350.699 502.567 352.378 504.325 359.882 501.442C368.285 498.084 377.695 494.619 386.285 491.637C389.8 490.432 391.4 488.99 391.607 487.381C391.677 486.838 391.598 486.245 391.39 485.633H391.37ZM352.684 443.669L352.714 443.659H352.724L352.773 443.639C354.145 443.155 355.626 442.908 357.216 443.205C357.947 443.343 358.687 443.59 359.428 443.985C360.435 444.508 361.284 445.219 362.045 446.009V446.019L367.08 451.262L367.09 451.272C369.648 454.076 371.099 456.791 370.783 459.299C370.447 461.906 368.305 464.098 363.654 465.698L337.31 475.483C327.841 479.116 325.58 476.747 322.381 473.399C322.025 473.024 321.66 472.639 321.522 472.511C320.998 471.978 320.554 471.444 320.09 470.882C319.804 470.526 319.507 470.171 319.182 469.805C314.936 465.016 315.459 459.161 320.307 455.557C321.403 454.738 322.825 453.967 324.533 453.375L352.684 443.679V443.669ZM358.628 446.7L358.608 446.69C358.5 446.611 358.381 446.532 358.263 446.473L358.243 446.463C357.947 446.285 357.631 446.137 357.305 446.029C356.377 445.723 355.232 445.713 353.78 446.197L325.58 455.913C324.543 456.288 323.753 456.693 323.161 457.117C322.391 457.67 321.986 458.233 321.838 458.776C321.699 459.28 321.778 459.783 321.986 460.237C322.124 460.543 322.312 460.82 322.529 461.077L327.89 467.258C328.789 468.275 329.421 468.729 330.063 468.798C330.833 468.867 331.919 468.502 333.568 467.88H333.578L359.537 458.272C360.07 458.065 360.327 457.966 360.573 457.868C361.985 457.324 363.348 456.801 364.316 456.199C365.481 455.478 365.945 454.53 364.711 452.852L359.833 447.766C359.448 447.372 359.053 447.006 358.618 446.71L358.628 446.7ZM367.633 457.167C367.209 457.631 366.656 458.055 366.024 458.45C364.839 459.181 363.338 459.754 361.788 460.356C361.344 460.524 360.889 460.701 360.741 460.761L360.712 460.771L334.763 470.368C332.709 471.148 331.277 471.602 329.855 471.464C328.305 471.326 327.091 470.566 325.639 468.917L325.629 468.907L320.258 462.716C320.001 462.419 319.764 462.094 319.557 461.748C318.747 463.901 318.905 465.214 321.472 468.117C321.818 468.502 322.134 468.897 322.45 469.272C322.884 469.795 323.299 470.309 323.694 470.704C324.178 471.188 324.395 471.415 324.602 471.632C326.962 474.11 328.631 475.858 336.145 472.975C344.548 469.618 353.958 466.152 362.538 463.17C366.053 461.965 367.653 460.524 367.86 458.914C367.93 458.371 367.85 457.779 367.643 457.167H367.633ZM327.505 416.278L327.535 416.268H327.545L327.594 416.249C328.967 415.765 330.448 415.518 332.028 415.814C332.758 415.952 333.499 416.199 334.239 416.594C335.247 417.118 336.096 417.828 336.856 418.618L341.892 423.861L341.902 423.871C344.459 426.676 345.91 429.381 345.594 431.899C345.259 434.506 343.116 436.698 338.465 438.297L312.122 448.082C302.652 451.716 300.391 449.346 297.192 445.999C296.837 445.624 296.471 445.239 296.333 445.11C295.81 444.577 295.365 444.044 294.901 443.481C294.615 443.126 294.319 442.77 293.993 442.405C289.747 437.616 290.27 431.761 295.119 428.157C296.215 427.337 297.636 426.567 299.345 425.975L327.495 416.278H327.505ZM333.449 419.319L333.43 419.31C333.311 419.231 333.203 419.152 333.084 419.092L333.064 419.082C332.768 418.905 332.452 418.757 332.126 418.648C331.188 418.342 330.053 418.332 328.601 418.816L300.401 428.532C299.364 428.907 298.574 429.312 297.982 429.737C297.212 430.289 296.807 430.852 296.659 431.395C296.521 431.889 296.6 432.402 296.807 432.857C296.945 433.153 297.133 433.439 297.35 433.696L302.712 439.877C303.61 440.894 304.242 441.348 304.884 441.417C305.654 441.487 306.74 441.121 308.389 440.499H308.399L334.358 430.892C334.891 430.684 335.148 430.586 335.395 430.487C336.807 429.944 338.169 429.421 339.137 428.818C340.302 428.097 340.766 427.15 339.532 425.471L334.654 420.386C334.269 419.991 333.874 419.626 333.44 419.329L333.449 419.319ZM342.455 429.776C342.03 430.24 341.477 430.665 340.845 431.06C339.66 431.79 338.169 432.363 336.599 432.965C336.155 433.133 335.711 433.311 335.553 433.37L335.523 433.38L309.574 442.978C307.52 443.758 306.089 444.202 304.667 444.074C303.116 443.935 301.902 443.175 300.451 441.526L300.441 441.516L295.069 435.325C294.812 435.029 294.566 434.703 294.368 434.358C293.558 436.51 293.716 437.823 296.284 440.716C296.629 441.102 296.945 441.496 297.261 441.872C297.696 442.395 298.11 442.899 298.505 443.303C298.989 443.787 299.206 444.014 299.414 444.232C301.774 446.7 303.452 448.458 310.956 445.574C319.359 442.217 328.769 438.751 337.36 435.77C340.875 434.565 342.474 433.123 342.682 431.514C342.751 430.971 342.672 430.378 342.464 429.766L342.455 429.776ZM371.968 547.464L371.998 547.454H372.007L372.057 547.435C373.429 546.951 374.91 546.704 376.5 547C377.241 547.138 377.981 547.385 378.722 547.78C379.719 548.304 380.568 549.015 381.329 549.795V549.804L386.364 555.048L386.374 555.057C388.932 557.862 390.383 560.577 390.067 563.085C389.731 565.692 387.589 567.884 382.938 569.493L356.594 579.278C347.125 582.912 344.864 580.542 341.665 577.195C341.309 576.82 340.934 576.435 340.806 576.306C340.282 575.773 339.838 575.24 339.374 574.677C339.088 574.322 338.781 573.966 338.465 573.601C334.22 568.812 334.743 562.957 339.591 559.353C340.687 558.533 342.109 557.763 343.817 557.18L371.968 547.484V547.464ZM377.873 550.476L377.843 550.456C377.764 550.397 377.685 550.348 377.596 550.298L377.567 550.278C377.26 550.091 376.935 549.933 376.599 549.824C375.671 549.518 374.525 549.508 373.074 550.002L344.874 559.718C343.837 560.093 343.047 560.508 342.455 560.923C341.684 561.476 341.27 562.038 341.131 562.572C340.993 563.075 341.072 563.579 341.28 564.033C341.418 564.339 341.605 564.616 341.823 564.872L347.184 571.053C348.083 572.07 348.715 572.525 349.356 572.584C350.117 572.653 351.213 572.288 352.862 571.666H352.872L378.83 562.058C379.354 561.851 379.62 561.752 379.877 561.653C381.289 561.11 382.652 560.587 383.619 559.985C384.784 559.264 385.249 558.316 384.014 556.637L379.137 551.552C378.742 551.147 378.327 550.772 377.892 550.466L377.873 550.476ZM386.907 560.962C386.483 561.426 385.93 561.851 385.288 562.246C384.113 562.976 382.612 563.549 381.052 564.151C380.608 564.319 380.163 564.497 380.005 564.556L379.976 564.566L354.027 574.174C351.973 574.954 350.541 575.398 349.12 575.27C347.569 575.121 346.355 574.371 344.893 572.722L344.884 572.712L339.512 566.521C339.255 566.225 339.018 565.899 338.811 565.554C338.001 567.706 338.159 569.019 340.727 571.922C341.072 572.307 341.388 572.702 341.704 573.078C342.139 573.601 342.553 574.104 342.948 574.509C343.432 574.993 343.649 575.22 343.857 575.437C346.217 577.906 347.885 579.663 355.399 576.78C363.802 573.423 373.212 569.957 381.793 566.975C385.308 565.771 386.907 564.329 387.115 562.72C387.184 562.167 387.105 561.584 386.897 560.972L386.907 560.962ZM347.757 519.728L347.787 519.718H347.796L347.846 519.699C349.218 519.215 350.699 518.968 352.289 519.264C353.03 519.402 353.77 519.649 354.511 520.044C355.508 520.568 356.357 521.278 357.117 522.058V522.068L362.153 527.311L362.163 527.321C364.72 530.126 366.172 532.841 365.856 535.349C365.52 537.956 363.378 540.148 358.727 541.747L332.383 551.532C322.914 555.166 320.653 552.796 317.454 549.449C317.098 549.074 316.723 548.689 316.595 548.56C316.071 548.037 315.627 547.494 315.163 546.931C314.876 546.576 314.57 546.22 314.254 545.855C310.009 541.066 310.532 535.211 315.38 531.607C316.476 530.787 317.898 530.017 319.606 529.434L347.757 519.738V519.728ZM353.662 522.74L353.632 522.72C353.553 522.661 353.474 522.611 353.395 522.562L353.365 522.542C353.059 522.355 352.733 522.197 352.388 522.088C351.46 521.782 350.314 521.772 348.863 522.256L320.663 531.972C319.626 532.347 318.836 532.752 318.243 533.177C317.463 533.73 317.068 534.292 316.92 534.835C316.782 535.339 316.861 535.843 317.068 536.297C317.207 536.603 317.394 536.879 317.612 537.136L322.973 543.317C323.872 544.334 324.504 544.788 325.145 544.848C325.906 544.917 327.002 544.551 328.651 543.929H328.661L354.619 534.322C355.162 534.105 355.409 534.016 355.656 533.917C357.068 533.374 358.431 532.851 359.398 532.248C360.554 531.528 361.028 530.58 359.793 528.901L354.916 523.816C354.521 523.411 354.106 523.036 353.662 522.73V522.74ZM362.706 533.226C362.282 533.69 361.729 534.115 361.087 534.51C359.912 535.24 358.411 535.813 356.851 536.415C356.407 536.593 355.942 536.761 355.804 536.82L355.775 536.83L329.826 546.428C327.772 547.208 326.34 547.662 324.918 547.524C323.368 547.385 322.154 546.625 320.692 544.976L320.682 544.966L315.311 538.775C315.054 538.479 314.817 538.153 314.61 537.798C313.8 539.95 313.958 541.263 316.525 544.166C316.871 544.551 317.187 544.947 317.503 545.322C317.937 545.845 318.352 546.358 318.747 546.753C319.231 547.237 319.448 547.464 319.655 547.682C322.015 550.16 323.684 551.908 331.198 549.024C339.601 545.667 349.011 542.201 357.591 539.22C361.107 538.015 362.706 536.573 362.914 534.964C362.983 534.421 362.904 533.828 362.696 533.216L362.706 533.226ZM323.388 492.091L323.417 492.081H323.427L323.477 492.061C324.849 491.577 326.33 491.331 327.92 491.627C328.651 491.765 329.391 492.012 330.132 492.407C331.139 492.93 331.988 493.641 332.748 494.431V494.441L337.784 499.684L337.794 499.694C340.351 502.498 341.803 505.204 341.487 507.712C341.161 510.318 339.009 512.52 334.358 514.12L308.014 523.905C298.545 527.539 296.284 525.169 293.085 521.822C292.729 521.446 292.364 521.061 292.225 520.933C291.702 520.4 291.258 519.866 290.794 519.304C290.507 518.948 290.211 518.593 289.885 518.227C285.639 513.439 286.163 507.583 291.011 503.979C292.107 503.16 293.529 502.389 295.237 501.797L323.388 492.101V492.091ZM329.292 495.102L329.263 495.083C329.184 495.023 329.105 494.974 329.016 494.925L328.986 494.905C328.68 494.717 328.354 494.569 328.019 494.451C327.091 494.145 325.945 494.135 324.494 494.619L296.294 504.335C295.257 504.71 294.467 505.125 293.874 505.539C293.104 506.092 292.699 506.655 292.551 507.198C292.413 507.702 292.492 508.205 292.699 508.659C292.838 508.966 293.025 509.242 293.242 509.499L298.604 515.68C299.503 516.697 300.135 517.151 300.776 517.21C301.547 517.279 302.633 516.914 304.282 516.292H304.292L330.25 506.685C330.774 506.477 331.04 506.379 331.287 506.28C332.699 505.737 334.062 505.213 335.029 504.611C336.194 503.89 336.659 502.942 335.424 501.264L330.547 496.179C330.152 495.774 329.737 495.399 329.302 495.093L329.292 495.102ZM338.327 505.589C337.903 506.053 337.35 506.477 336.718 506.872C335.533 507.603 334.032 508.176 332.482 508.778C332.037 508.946 331.603 509.114 331.435 509.183L331.406 509.193L305.457 518.79C303.403 519.57 301.971 520.025 300.549 519.896C298.999 519.748 297.785 518.998 296.333 517.349L296.323 517.339L290.952 511.148C290.695 510.851 290.458 510.526 290.251 510.18C289.441 512.333 289.599 513.646 292.166 516.549C292.512 516.934 292.828 517.329 293.144 517.704C293.578 518.227 293.993 518.741 294.388 519.136C294.872 519.62 295.089 519.847 295.296 520.064C297.656 522.532 299.335 524.29 306.839 521.407C315.242 518.05 324.652 514.584 333.242 511.602C336.757 510.397 338.357 508.956 338.564 507.346C338.633 506.793 338.554 506.211 338.347 505.599L338.327 505.589ZM299.967 463.94L299.996 463.93H300.006L300.056 463.91C301.428 463.427 302.909 463.18 304.499 463.476C305.239 463.614 305.98 463.861 306.73 464.266C307.728 464.789 308.577 465.49 309.337 466.28V466.29L314.373 471.533L314.383 471.543C316.94 474.347 318.401 477.063 318.076 479.571C317.74 482.177 315.597 484.379 310.947 485.979L284.603 495.764C275.134 499.398 272.872 497.028 269.673 493.681C269.387 493.384 269.101 493.078 268.814 492.792C268.291 492.259 267.847 491.726 267.382 491.163C267.096 490.807 266.8 490.452 266.474 490.086C262.228 485.298 262.752 479.442 267.6 475.838C268.696 475.019 270.118 474.249 271.826 473.666L299.977 463.97L299.967 463.94ZM305.881 466.952C305.773 466.883 305.674 466.804 305.565 466.744C305.259 466.557 304.933 466.409 304.598 466.29C303.66 465.984 302.524 465.974 301.073 466.458L272.872 476.174C271.836 476.549 271.046 476.954 270.453 477.379C269.683 477.932 269.278 478.494 269.13 479.037C268.992 479.541 269.071 480.045 269.278 480.499C269.416 480.805 269.604 481.081 269.821 481.338L275.183 487.519C276.081 488.536 276.713 488.99 277.355 489.05C278.125 489.119 279.212 488.753 280.86 488.131H280.87L306.829 478.524C307.372 478.307 307.619 478.218 307.866 478.119C309.278 477.576 310.64 477.053 311.608 476.45C312.773 475.73 313.237 474.782 312.003 473.103L307.125 468.018C306.73 467.613 306.326 467.248 305.881 466.932V466.952ZM314.916 477.438C314.491 477.902 313.938 478.327 313.306 478.721C312.122 479.452 310.631 480.025 309.071 480.627C308.626 480.805 308.162 480.973 308.024 481.032L307.994 481.042L282.045 490.639C279.992 491.419 278.56 491.874 277.138 491.735C275.588 491.597 274.373 490.837 272.922 489.188L272.912 489.178L267.54 482.987C267.284 482.691 267.047 482.365 266.839 482.019C266.03 484.172 266.188 485.485 268.755 488.388C269.101 488.773 269.417 489.168 269.732 489.543C270.167 490.067 270.582 490.58 270.977 490.975C271.302 491.301 271.599 491.607 271.875 491.903H271.885C274.245 494.382 275.923 496.129 283.428 493.246C291.831 489.889 301.24 486.423 309.821 483.441C313.336 482.237 314.936 480.795 315.143 479.186C315.212 478.642 315.133 478.06 314.926 477.438H314.916ZM275.529 436.48L275.558 436.471H275.568L275.617 436.451C276.99 435.967 278.471 435.72 280.051 436.016C280.791 436.155 281.522 436.401 282.272 436.796C283.27 437.32 284.129 438.031 284.889 438.821V438.83L289.925 444.074L289.935 444.083C292.492 446.888 293.944 449.603 293.628 452.111C293.292 454.718 291.149 456.92 286.499 458.519L260.155 468.304C250.685 471.938 248.424 469.568 245.225 466.221C244.87 465.846 244.504 465.461 244.366 465.332C243.843 464.799 243.398 464.266 242.934 463.703C242.648 463.348 242.352 462.992 242.026 462.627C237.78 457.838 238.303 451.983 243.152 448.379C244.248 447.559 245.67 446.789 247.378 446.206L275.529 436.51V436.48ZM281.473 439.522L281.453 439.502C281.334 439.423 281.226 439.354 281.107 439.285L281.088 439.275C280.791 439.097 280.475 438.949 280.15 438.84C279.221 438.534 278.076 438.524 276.625 439.008L248.424 448.724C247.388 449.099 246.598 449.504 246.005 449.929C245.235 450.482 244.83 451.045 244.682 451.588C244.544 452.091 244.623 452.595 244.83 453.049C244.968 453.355 245.156 453.632 245.373 453.888L250.735 460.069C251.633 461.087 252.265 461.541 252.907 461.6C253.677 461.669 254.763 461.304 256.412 460.682H256.422L282.381 451.074C282.914 450.867 283.171 450.768 283.428 450.669C284.84 450.126 286.202 449.603 287.17 449.001C288.335 448.28 288.799 447.332 287.565 445.653L282.687 440.568C282.302 440.173 281.907 439.808 281.473 439.512V439.522ZM290.478 449.978C290.053 450.442 289.5 450.867 288.858 451.262C287.683 451.993 286.183 452.565 284.622 453.168C284.178 453.335 283.724 453.513 283.576 453.572L283.546 453.582L257.597 463.19C255.544 463.97 254.112 464.424 252.69 464.286C251.14 464.138 249.925 463.387 248.464 461.738L248.454 461.728L243.083 455.537C242.826 455.241 242.589 454.915 242.381 454.57C241.572 456.722 241.73 458.035 244.297 460.929C244.643 461.314 244.959 461.709 245.275 462.084C245.709 462.607 246.124 463.121 246.519 463.516C247.003 463.999 247.22 464.226 247.427 464.444C249.787 466.912 251.466 468.67 258.97 465.787C267.373 462.429 276.783 458.964 285.363 455.982C288.878 454.777 290.478 453.335 290.685 451.726C290.754 451.183 290.675 450.59 290.468 449.978H290.478ZM3.68709 384.464C6.21484 402.583 14.9928 423.753 30.7123 442.721C48.0017 463.575 73.684 481.723 108.677 490.165L109.161 490.284L266.474 669.073C271.915 675.254 277.572 678.937 282.964 680.793C290.586 683.41 299.118 682.669 305.447 678.058C307.412 676.626 308.952 674.948 309.969 673.17C300.569 671.64 292.176 668.391 285.314 662.98C249.234 634.504 189.062 561.811 137.381 499.378C100.038 454.264 67.1276 414.521 51.1218 400.875C42.4525 393.479 32.1045 392.235 23.1784 391.149C14.9138 390.152 7.75519 389.283 3.66735 384.474L3.68709 384.464ZM41.0405 330.72L46.6983 335.44L221.962 277.766C220.362 276.363 218.792 275.366 217.311 274.754C215.445 273.984 213.767 273.865 212.424 274.359L212.364 274.379L41.0405 330.71V330.72Z" fill="black"/>
</svg>
