<?xml version="1.0" encoding="UTF-8"?>
<!DOCTYPE svg PUBLIC "-//W3C//DTD SVG 1.1//EN" "http://www.w3.org/Graphics/SVG/1.1/DTD/svg11.dtd">
<!-- Creator: CorelDRAW 2020 (64 Bit) -->
<svg xmlns="http://www.w3.org/2000/svg" xml:space="preserve" width="78.0814mm" height="65.4611mm" version="1.1" style="shape-rendering:geometricPrecision; text-rendering:geometricPrecision; image-rendering:optimizeQuality; fill-rule:evenodd; clip-rule:evenodd"
viewBox="0 0 176.84 148.26"
 xmlns:xlink="http://www.w3.org/1999/xlink"
 xmlns:xodm="http://www.corel.com/coreldraw/odm/2003">
 <defs>
  <style type="text/css">
   <![CDATA[
    .fil0 {fill:red}
   ]]>
  </style>
 </defs>
 <g id="Layer_x0020_1">
  <metadata id="CorelCorpID_0Corel-Layer"/>
  <circle class="fil0" cx="69.38" cy="53.62" r="28.9"/>
  <path class="fil0" d="M42.45 120.62c-7.62,0 -13.82,6.2 -13.82,13.82 0,7.62 6.21,13.8 13.82,13.8 7.61,0 13.84,-6.18 13.84,-13.8 0,-7.63 -6.22,-13.82 -13.84,-13.82zm-42.06 -87.88l19.56 64.57c1.33,4.38 5.57,7.54 10.17,7.54l73.99 0c4.58,0 8.83,-3.14 10.17,-7.54l22.72 -74.89c1.2,-3.96 4.9,-6.65 9.01,-6.7l22.8 0c4.59,0 8.03,-3.22 8.03,-7.86 0,-4.68 -3.41,-7.86 -8.03,-7.86l-34.14 0c-4.58,0 -8.83,3.14 -10.16,7.55 -7.94,25.8 -15.73,51.56 -23.87,77.25 -0.62,1.95 -1.68,3.73 -3.73,3.73 -19.86,0 -39.73,0 -59.59,0 -2.05,0 -3.11,-1.77 -3.73,-3.73 -4.63,-14.61 -9.23,-29.23 -13.8,-43.87l10.86 0c4.41,0 8.02,-3.62 8.02,-8.02 0,-4.41 -3.62,-8.02 -8.02,-8.02l-24.39 -0c-4.65,0.03 -7.31,3.28 -5.87,7.86zm91.4 87.88c-7.62,0 -13.83,6.2 -13.83,13.82 0,7.62 6.21,13.82 13.83,13.82 7.62,0 13.83,-6.19 13.83,-13.82 0,-7.62 -6.21,-13.82 -13.83,-13.82z"/>
 </g>
</svg>
